<?xml version="1.0" standalone="no"?>
  <svg version="1.0" xmlns="http://www.w3.org/2000/svg"
  width="666.000000pt" height="375.000000pt" viewBox="0 0 666.000000 375.000000"
  preserveAspectRatio="xMidYMid meet">
    <g transform="translate(0.000000,375.000000) scale(0.100000,-0.100000)"
    fill="#000000" stroke="none">
    <path d="M4304 2808 c3 -13 6 -42 6 -65 l0 -43 78 1 77 0 -55 25 c-30 13 -64
    28 -75 33 -18 8 -17 10 15 23 111 47 110 47 220 0 l35 -15 -70 -33 -70 -33 78
    -1 77 0 0 65 0 65 -161 0 -161 0 6 -22z"/>
    <path d="M4832 2810 c0 -14 2 -19 5 -12 2 6 2 18 0 25 -3 6 -5 1 -5 -13z"/>
    <path d="M4978 2823 c7 -3 16 -2 19 1 4 3 -2 6 -13 5 -11 0 -14 -3 -6 -6z"/>
    <path d="M5053 2815 c-3 -9 -3 -19 1 -22 3 -4 6 1 6 10 0 8 6 18 13 20 9 4 9
    6 -1 6 -7 1 -15 -6 -19 -14z"/>
    <path d="M4433 2798 c-30 -14 -29 -43 1 -63 42 -27 101 12 73 48 -17 21 -48
    27 -74 15z"/>
    <path d="M5080 2790 c-9 -6 -10 -10 -3 -10 6 0 15 5 18 10 8 12 4 12 -15 0z"/>
    <path d="M4757 2743 c-4 -3 -7 -16 -7 -27 0 -12 3 -16 8 -10 4 6 14 14 22 17
    12 4 11 6 -3 6 -10 1 -15 6 -12 11 7 11 2 13 -8 3z"/>
    <path d="M4867 2743 c-4 -3 -7 -16 -7 -27 0 -12 3 -16 8 -10 4 6 14 14 22 17
    11 4 10 6 -5 6 -17 1 -17 3 -5 11 8 5 10 10 4 10 -6 0 -14 -3 -17 -7z"/>
    <path d="M5064 2735 c-3 -8 -4 -20 -2 -27 3 -7 7 -1 10 15 6 29 1 36 -8 12z"/>
    <path d="M4922 2720 c0 -14 2 -19 5 -12 2 6 2 18 0 25 -3 6 -5 1 -5 -13z"/>
    <path d="M5034 2720 c0 -13 4 -16 10 -10 7 7 7 13 0 20 -6 6 -10 3 -10 -10z"/>
    <path d="M5157 2720 c10 -11 19 -20 21 -20 1 0 -2 9 -8 20 -6 11 -15 20 -20
    20 -6 0 -2 -9 7 -20z"/>
    <path d="M5192 2720 c0 -14 2 -19 5 -12 2 6 2 18 0 25 -3 6 -5 1 -5 -13z"/>
    <path d="M4811 2714 c0 -11 3 -14 6 -6 3 7 2 16 -1 19 -3 4 -6 -2 -5 -13z"/>
    <path d="M4961 2714 c0 -11 3 -14 6 -6 3 7 2 16 -1 19 -3 4 -6 -2 -5 -13z"/>
    <path d="M4990 2721 c0 -6 4 -13 10 -16 6 -3 7 1 4 9 -7 18 -14 21 -14 7z"/>
    <path d="M5130 2709 c0 -5 5 -7 10 -4 6 3 10 8 10 11 0 2 -4 4 -10 4 -5 0 -10
    -5 -10 -11z"/>
    <path d="M4147 2617 c-2 -7 -1 -118 4 -247 4 -129 15 -453 24 -720 9 -267 18
    -491 21 -497 3 -10 145 -13 669 -13 375 0 665 4 665 9 0 5 -24 273 -54 597
    -30 324 -60 655 -67 737 l-13 147 -622 0 c-497 0 -623 -3 -627 -13z m251 -179
    c-1 -36 -2 -38 -5 -11 -3 25 -8 31 -21 26 -15 -6 -15 -5 -3 10 22 28 31 20 29
    -25z m357 31 c4 -6 -3 -21 -15 -34 l-22 -23 24 -5 c14 -3 7 -5 -17 -5 l-40 -1
    28 24 c35 31 36 49 1 41 -17 -5 -23 -3 -19 4 8 13 52 13 60 -1z m330 -9 c0 -8
    4 -21 8 -27 5 -7 5 -17 2 -23 -8 -13 -52 -13 -60 0 -4 7 2 9 19 4 25 -6 37 8
    16 21 -5 3 -6 13 -3 21 5 13 1 15 -17 9 -16 -5 -20 -4 -15 5 10 16 50 8 50
    -10z m-663 -240 c5 -34 -7 -62 -19 -44 -5 7 -16 13 -26 15 -18 4 -18 6 3 32
    27 35 37 34 42 -3z m331 23 c-13 -2 -23 -9 -23 -14 0 -6 4 -8 9 -4 14 8 41
    -23 35 -40 -7 -17 -50 -20 -59 -5 -4 7 2 9 19 4 20 -5 26 -2 26 10 0 10 -9 16
    -25 16 -14 0 -25 6 -25 13 0 20 11 27 39 26 24 -2 24 -2 4 -6z m353 -4 c4 -7
    0 -9 -14 -5 -11 4 -23 2 -27 -4 -4 -6 4 -10 18 -10 14 0 27 -6 30 -13 8 -22
    -8 -39 -34 -35 -24 3 -37 34 -25 64 6 17 42 19 52 3z m-685 -259 c-10 -22 -21
    -44 -26 -48 -8 -7 -1 30 11 61 4 11 -2 17 -18 20 -15 3 -11 5 14 6 l37 1 -18
    -40z m352 33 c3 -5 8 -22 11 -40 6 -26 4 -32 -14 -38 -30 -9 -48 10 -45 48 2
    17 3 33 4 35 3 6 40 1 44 -5z m345 -5 c17 -17 15 -53 -3 -68 -18 -15 -49 -5
    -42 14 3 7 1 18 -4 23 -14 14 0 43 20 43 9 0 22 -5 29 -12z m-320 -267 c4 -40
    -8 -55 -36 -47 -41 13 -31 90 11 84 17 -2 23 -11 25 -37z m626 -262 c3 -34 6
    -78 6 -98 l0 -36 -165 3 c-119 2 -167 6 -170 15 -2 7 -6 49 -9 95 l-6 82 168
    0 169 0 7 -61z m-808 33 c11 -7 24 -152 17 -184 -4 -16 -21 -18 -172 -18
    l-168 0 -7 61 c-8 80 -8 134 1 142 9 9 315 9 329 -1z m401 -16 c3 -3 8 -40 11
    -81 l5 -75 -169 2 -169 3 -3 77 c-2 66 0 77 15 80 29 5 304 1 310 -6z"/>
    <path d="M4385 2210 c-3 -5 -1 -10 4 -10 6 0 11 5 11 10 0 6 -2 10 -4 10 -3 0
    -8 -4 -11 -10z"/>
    <path d="M5067 2204 c-9 -10 2 -24 19 -24 8 0 14 7 14 15 0 15 -21 21 -33 9z"/>
    <path d="M4740 2000 c0 -5 7 -10 16 -10 8 0 12 5 9 10 -3 6 -10 10 -16 10 -5
    0 -9 -4 -9 -10z"/>
    <path d="M4742 1959 c2 -6 8 -10 13 -10 5 0 11 4 13 10 2 6 -4 11 -13 11 -9 0
    -15 -5 -13 -11z"/>
    <path d="M5082 1994 c4 -21 22 -23 26 -1 2 10 -3 17 -13 17 -10 0 -15 -6 -13
    -16z"/>
    <path d="M5097 1963 c-9 -2 -15 -9 -12 -14 9 -14 22 -11 29 6 3 8 4 14 3 14
    -1 -1 -10 -3 -20 -6z"/>
    <path d="M4750 1741 c0 -33 16 -49 32 -33 14 14 1 62 -17 62 -10 0 -15 -10
    -15 -29z"/>
    <path d="M5100 1495 c0 -23 3 -24 58 -22 40 1 59 6 64 17 5 12 7 10 7 -5 1
    -17 3 -18 11 -5 9 13 11 13 20 0 8 -13 10 -12 11 5 0 17 2 17 7 4 5 -13 21
    -17 68 -16 55 0 61 2 56 19 -7 29 -21 32 -31 6 -9 -22 -10 -22 -10 -2 -1 28
    -33 27 -43 -1 -6 -19 -6 -19 -7 2 -1 19 -6 21 -51 20 -28 0 -50 -5 -50 -11 0
    -7 -3 -8 -8 -1 -4 6 -28 11 -54 12 -44 2 -48 0 -48 -22z m40 0 c0 -2 -7 -5
    -15 -9 -9 -3 -15 0 -15 9 0 9 6 12 15 9 8 -4 15 -7 15 -9z m30 -6 c0 -5 -4 -9
    -10 -9 -5 0 -10 7 -10 16 0 8 5 12 10 9 6 -3 10 -10 10 -16z"/>
    <path d="M5340 1420 c0 -5 5 -10 11 -10 5 0 7 5 4 10 -3 6 -8 10 -11 10 -2 0
    -4 -4 -4 -10z"/>
    <path d="M4327 1494 c-14 -14 -7 -30 13 -30 13 0 20 6 18 15 -3 16 -21 25 -31
    15z"/>
    <path d="M4370 1483 c0 -11 7 -20 15 -20 18 0 16 28 -2 35 -8 2 -13 -5 -13
    -15z"/>
    <path d="M4460 1484 c0 -16 6 -20 29 -20 17 0 27 4 24 8 -3 5 -11 7 -19 4 -7
    -3 -18 3 -23 12 -9 15 -10 15 -11 -4z"/>
    <path d="M4554 1485 c-4 -9 -4 -19 0 -22 3 -4 6 1 6 10 0 21 17 22 23 2 4 -12
    5 -11 3 1 -2 23 -24 30 -32 9z"/>
    <path d="M4420 1476 c0 -9 7 -16 16 -16 17 0 14 22 -4 28 -7 2 -12 -3 -12 -12z"/>
    <path d="M4720 1471 c0 -18 9 -19 115 -19 102 0 115 2 115 17 0 14 -11 17 -70
    18 -40 0 -70 -4 -70 -10 0 -5 -7 -3 -16 4 -14 11 -18 11 -29 -4 -13 -18 -35
    -23 -35 -8 0 5 6 12 13 14 7 3 5 6 -5 6 -11 1 -18 -6 -18 -18z m70 -1 c0 -5
    -4 -10 -10 -10 -5 0 -10 5 -10 10 0 6 5 10 10 10 6 0 10 -4 10 -10z m95 0 c3
    -6 -1 -7 -9 -4 -18 7 -21 14 -7 14 6 0 13 -4 16 -10z m55 6 c0 -3 -4 -8 -10
    -11 -5 -3 -10 -1 -10 4 0 6 5 11 10 11 6 0 10 -2 10 -4z"/>
    <path d="M4960 1470 c0 -11 7 -20 15 -20 8 0 15 5 15 10 0 6 -6 10 -12 10 -9
    0 -8 4 2 10 13 8 12 10 -2 10 -11 0 -18 -8 -18 -20z"/>
    <path d="M1358 2613 c6 -2 18 -2 25 0 6 3 1 5 -13 5 -14 0 -19 -2 -12 -5z"/>
    <path d="M2978 2613 c12 -2 32 -2 45 0 12 2 2 4 -23 4 -25 0 -35 -2 -22 -4z"/>
    <path d="M3570 2610 l215 -5 6 -120 5 -120 0 125 -1 125 -220 0 -220 1 215 -6z"/>
    <path d="M1441 2338 c-1 -31 19 -37 39 -13 9 11 10 19 3 26 -8 8 -11 6 -10 -6
    3 -27 -21 -29 -26 -3 -4 20 -4 20 -6 -4z"/>
    <path d="M1940 2342 c0 -11 4 -23 8 -26 10 -6 9 30 -1 40 -4 4 -7 -2 -7 -14z"/>
    <path d="M1500 2342 c0 -4 9 -8 19 -8 11 0 17 4 15 8 -3 4 -12 8 -20 8 -8 0
    -14 -4 -14 -8z"/>
    <path d="M1550 2329 c0 -14 5 -19 17 -17 26 5 29 38 4 38 -15 0 -21 -6 -21
    -21z m30 1 c0 -5 -4 -10 -10 -10 -5 0 -10 5 -10 10 0 6 5 10 10 10 6 0 10 -4
    10 -10z"/>
    <path d="M1601 2332 c-1 -17 4 -23 16 -20 10 2 18 11 19 21 1 12 1 13 -3 2 -6
    -20 -20 -19 -26 3 -3 12 -5 11 -6 -6z"/>
    <path d="M1650 2336 c0 -8 4 -17 8 -20 4 -2 8 4 8 15 0 10 -4 19 -8 19 -4 0
    -8 -6 -8 -14z"/>
    <path d="M1693 2343 c9 -2 17 -8 17 -13 0 -5 -8 -11 -17 -13 -14 -4 -12 -5 5
    -6 16 -1 22 5 22 19 0 14 -6 20 -22 19 -17 -1 -19 -2 -5 -6z"/>
    <path d="M1737 2343 c-14 -13 -6 -33 13 -33 13 0 20 7 20 20 0 19 -20 27 -33
    13z m23 -13 c0 -5 -4 -10 -10 -10 -5 0 -10 5 -10 10 0 6 5 10 10 10 6 0 10 -4
    10 -10z"/>
    <path d="M1784 2339 c-11 -18 14 -35 29 -20 10 10 9 11 -5 6 -10 -4 -18 -3
    -18 3 0 6 8 13 18 15 15 4 15 5 0 6 -9 0 -20 -4 -24 -10z"/>
    <path d="M1851 2333 c-1 -18 4 -23 22 -22 15 1 17 3 5 6 -9 2 -19 12 -21 21
    -3 12 -5 10 -6 -5z"/>
    <path d="M1974 2339 c-3 -6 -1 -16 5 -22 9 -9 11 -8 6 6 -4 9 -3 17 3 17 6 0
    13 -8 15 -17 4 -14 5 -12 6 5 1 23 -22 31 -35 11z"/>
    <path d="M2024 2339 c-11 -18 14 -35 29 -20 10 10 8 11 -7 5 -16 -6 -18 -4
    -13 9 7 19 2 23 -9 6z"/>
    <path d="M2125 2340 c-8 -13 3 -30 18 -30 8 0 7 3 -2 9 -7 5 -10 14 -7 20 4 6
    5 11 2 11 -3 0 -8 -4 -11 -10z"/>
    <path d="M1910 2320 c-9 -6 -10 -10 -3 -10 6 0 15 5 18 10 8 12 4 12 -15 0z"/>
    <path d="M1508 2313 c7 -3 16 -2 19 1 4 3 -2 6 -13 5 -11 0 -14 -3 -6 -6z"/>
    <path d="M3260 2301 c0 -7 -4 -10 -9 -7 -4 3 -15 -2 -24 -12 -45 -49 -55 -58
    -72 -67 -16 -10 -17 -17 -5 -98 7 -48 17 -87 21 -87 5 0 6 6 3 14 -8 20 13 90
    36 118 12 16 34 28 58 31 44 7 112 -8 113 -26 4 -48 -5 -83 -27 -102 -19 -16
    -24 -30 -24 -68 0 -42 -3 -47 -26 -53 l-26 -7 34 -16 c23 -11 32 -22 30 -33
    -2 -10 -8 -18 -13 -18 -5 0 -9 -4 -9 -10 0 -5 7 -10 15 -10 8 0 15 -8 15 -19
    0 -29 -46 -33 -78 -7 -38 29 -72 48 -72 38 0 -15 54 -61 100 -85 33 -17 46
    -31 50 -52 5 -26 6 -27 19 -11 14 16 15 16 27 -6 10 -16 13 -18 14 -7 0 23 26
    44 35 29 4 -6 13 -9 19 -7 7 3 13 -1 13 -9 0 -7 -4 -11 -8 -8 -4 2 -11 -1 -15
    -7 -4 -8 -3 -9 4 -5 15 9 15 1 1 -27 -9 -19 -7 -18 10 3 11 14 23 33 27 43 3
    11 12 16 21 13 8 -3 19 -6 25 -6 6 0 8 -7 4 -15 -3 -8 -2 -15 2 -15 4 0 13 15
    20 33 7 19 15 28 20 21 4 -6 16 -8 27 -4 15 5 6 12 -44 31 -41 16 -72 35 -87
    55 -22 28 -24 36 -15 74 5 24 15 46 21 50 11 7 15 61 11 151 -2 26 3 57 11 69
    12 20 10 24 -16 44 -16 11 -50 37 -75 55 -37 28 -57 36 -103 39 -40 3 -58 1
    -58 -7z m138 -248 c-21 -5 -24 -23 -5 -23 8 0 7 -4 -3 -10 -12 -8 -11 -10 6
    -10 16 0 23 -7 26 -30 3 -16 1 -30 -2 -30 -12 0 -60 48 -60 60 0 23 21 50 38
    49 16 -1 16 -2 0 -6z"/>
    <path d="M1422 2180 c0 -14 2 -19 5 -12 2 6 2 18 0 25 -3 6 -5 1 -5 -13z"/>
    <path d="M1702 2175 c0 -16 2 -22 5 -12 2 9 2 23 0 30 -3 6 -5 -1 -5 -18z"/>
    <path d="M2043 2130 c0 -30 2 -43 4 -27 2 15 2 39 0 55 -2 15 -4 2 -4 -28z"/>
    <path d="M2013 2115 c0 -33 2 -45 4 -27 2 18 2 45 0 60 -2 15 -4 0 -4 -33z"/>
    <path d="M1533 2117 c-35 -19 -40 -25 -32 -40 7 -12 17 -16 31 -11 19 6 20 3
    13 -80 l-7 -86 25 0 c24 0 26 3 32 68 3 37 8 91 11 120 6 61 -4 65 -73 29z"/>
    <path d="M1809 2121 c-22 -18 -23 -21 -8 -36 14 -14 20 -15 36 -4 25 15 53 6
    53 -18 0 -9 -25 -41 -55 -69 -32 -31 -55 -61 -55 -73 0 -20 6 -21 80 -21 79 0
    80 0 80 25 0 23 -4 25 -42 25 l-42 0 41 43 c55 56 63 88 29 121 -31 32 -83 35
    -117 7z"/>
    <path d="M2133 2130 c-25 -10 -26 -11 -17 -33 4 -11 17 -13 50 -9 40 4 44 3
    44 -17 0 -19 -16 -27 -44 -22 -5 1 -13 -4 -17 -11 -16 -25 -9 -38 20 -38 16 0
    33 -6 39 -13 23 -27 -22 -52 -65 -36 -21 8 -30 6 -42 -6 -15 -15 -14 -17 3
    -31 11 -8 42 -14 68 -14 76 0 121 55 84 105 -12 16 -12 22 1 42 40 61 -42 116
    -124 83z"/>
    <path d="M2459 2063 c-69 -93 -68 -111 5 -115 46 -3 51 -5 50 -25 -1 -19 4
    -23 26 -23 23 0 27 4 23 20 -3 12 1 22 11 26 17 7 22 44 6 44 -6 0 -10 32 -10
    75 l0 75 -27 0 c-23 -1 -38 -15 -84 -77z m61 -33 c0 -38 -2 -40 -30 -40 -16 0
    -30 3 -30 6 0 7 51 74 56 74 2 0 4 -18 4 -40z"/>
    <path d="M2746 2078 c-3 -33 -3 -65 0 -70 4 -6 23 -8 43 -4 43 6 64 -4 59 -30
    -3 -16 -13 -19 -57 -19 -38 0 -56 -4 -59 -14 -14 -43 99 -57 144 -18 55 48 23
    131 -51 131 -27 0 -35 4 -35 18 0 15 9 18 51 18 47 0 50 2 47 23 -3 20 -9 22
    -69 24 l-66 1 -7 -60z"/>
    <path d="M1413 2080 c0 -25 2 -35 4 -22 2 12 2 32 0 45 -2 12 -4 2 -4 -23z"/>
    <path d="M2950 1975 l0 -135 -139 0 -140 0 -4 38 -4 37 -1 -42 -2 -43 150 0
    150 0 0 140 c0 77 -2 140 -5 140 -3 0 -5 -61 -5 -135z"/>
    <path d="M2353 2050 c0 -30 2 -43 4 -27 2 15 2 39 0 55 -2 15 -4 2 -4 -28z"/>
    <path d="M3240 2072 c-40 -6 -44 -18 -4 -14 26 3 35 1 30 -7 -4 -6 -17 -11
    -29 -11 -20 0 -19 -2 7 -15 33 -17 38 -15 41 19 3 27 -7 34 -45 28z"/>
    <path d="M1722 2050 c0 -14 2 -19 5 -12 2 6 2 18 0 25 -3 6 -5 1 -5 -13z"/>
    <path d="M1692 2040 c0 -14 2 -19 5 -12 2 6 2 18 0 25 -3 6 -5 1 -5 -13z"/>
    <path d="M1403 1960 c0 -25 2 -35 4 -22 2 12 2 32 0 45 -2 12 -4 2 -4 -23z"/>
    <path d="M2033 1955 c0 -27 2 -38 4 -22 2 15 2 37 0 50 -2 12 -4 0 -4 -28z"/>
    <path d="M2003 1940 c0 -30 2 -43 4 -27 2 15 2 39 0 55 -2 15 -4 2 -4 -28z"/>
    <path d="M3802 1960 c0 -19 2 -27 5 -17 2 9 2 25 0 35 -3 9 -5 1 -5 -18z"/>
    <path d="M3233 1948 c-4 -7 -8 -29 -9 -48 -2 -31 -1 -32 7 -11 6 14 15 21 24
    17 8 -3 17 -1 20 4 3 5 -4 12 -16 15 -12 4 -18 12 -15 21 7 17 0 18 -11 2z"/>
    <path d="M1682 1900 c0 -14 2 -19 5 -12 2 6 2 18 0 25 -3 6 -5 1 -5 -13z"/>
    <path d="M2630 1865 c0 -24 -1 -24 -102 -28 l-103 -3 108 -2 107 -2 0 30 c0
    17 -2 30 -5 30 -3 0 -5 -11 -5 -25z"/>
    <path d="M1392 1855 c0 -16 2 -22 5 -12 2 9 2 23 0 30 -3 6 -5 -1 -5 -18z"/>
    <path d="M1463 1833 c15 -2 37 -2 50 0 12 2 0 4 -28 4 -27 0 -38 -2 -22 -4z"/>
    <path d="M1380 1688 c0 -23 3 -29 9 -19 7 11 10 11 16 0 6 -9 10 -8 16 7 13
    34 10 44 -16 44 -22 0 -25 -4 -25 -32z m40 12 c0 -5 -7 -10 -15 -10 -8 0 -15
    5 -15 10 0 6 7 10 15 10 8 0 15 -4 15 -10z"/>
    <path d="M1500 1692 c0 -29 3 -33 23 -30 25 3 32 43 7 43 -8 0 -18 5 -22 10
    -4 6 -8 -5 -8 -23z m40 -13 c0 -5 -7 -9 -15 -9 -15 0 -20 12 -9 23 8 8 24 -1
    24 -14z"/>
    <path d="M1660 1692 c0 -18 4 -32 8 -32 9 0 8 47 -1 57 -4 3 -7 -8 -7 -25z"/>
    <path d="M1780 1704 c0 -8 5 -12 10 -9 6 3 10 1 10 -4 0 -6 4 -11 9 -11 14 0
    43 31 36 39 -4 3 -13 -3 -21 -13 -12 -17 -14 -17 -20 -3 -8 21 -24 22 -24 1z"/>
    <path d="M1966 1711 c-4 -5 -2 -12 3 -15 5 -4 12 -2 15 3 4 5 2 12 -3 15 -5 4
    -12 2 -15 -3z"/>
    <path d="M1453 1703 c-7 -3 -13 -13 -13 -24 0 -23 35 -26 43 -5 7 17 -13 35
    -30 29z m18 -26 c-13 -13 -26 -3 -16 12 3 6 11 8 17 5 6 -4 6 -10 -1 -17z"/>
    <path d="M1570 1700 c-18 -11 -5 -40 17 -39 16 0 16 1 -2 9 -19 8 -19 9 3 9
    12 1 22 5 22 10 0 13 -25 20 -40 11z"/>
    <path d="M1632 1701 c-8 -5 -12 -16 -10 -25 2 -12 6 -10 15 9 6 14 10 25 10
    25 -1 0 -8 -4 -15 -9z"/>
    <path d="M1700 1695 c-10 -11 -10 -19 -2 -27 15 -15 44 -2 40 19 -4 23 -22 27
    -38 8z m30 -10 c0 -8 -7 -15 -15 -15 -16 0 -20 12 -8 23 11 12 23 8 23 -8z"/>
    <path d="M1869 1699 c-18 -11 -3 -39 21 -39 14 0 20 7 20 23 0 24 -18 31 -41
    16z m31 -20 c0 -5 -7 -9 -15 -9 -15 0 -20 12 -9 23 8 8 24 -1 24 -14z"/>
    <path d="M2058 1683 c5 -21 7 -23 10 -9 2 10 0 22 -6 28 -6 6 -7 0 -4 -19z"/>
    <path d="M2094 1698 c-4 -6 -2 -14 4 -16 7 -2 10 -8 6 -13 -3 -5 0 -9 5 -9 14
    0 14 17 1 25 -6 4 -8 11 -5 16 4 5 4 9 1 9 -3 0 -8 -5 -12 -12z"/>
    <path d="M3240 1683 c0 -18 6 -33 15 -37 20 -7 19 22 0 48 -14 19 -15 18 -15
    -11z"/>
    <path d="M2002 1680 c0 -14 2 -19 5 -12 2 6 2 18 0 25 -3 6 -5 1 -5 -13z"/>
    <path d="M3437 1613 c-4 -3 -7 -11 -7 -17 0 -6 5 -5 12 2 6 6 9 14 7 17 -3 3
    -9 2 -12 -2z"/>
    <path d="M3210 1600 c0 -5 5 -10 11 -10 5 0 7 5 4 10 -3 6 -8 10 -11 10 -2 0
    -4 -4 -4 -10z"/>
    <path d="M3300 1605 c0 -5 5 -17 10 -25 5 -8 10 -10 10 -5 0 6 -5 17 -10 25
    -5 8 -10 11 -10 5z"/>
    <path d="M3281 1564 c0 -11 3 -14 6 -6 3 7 2 16 -1 19 -3 4 -6 -2 -5 -13z"/>
    <path d="M3811 1444 c0 -11 3 -14 6 -6 3 7 2 16 -1 19 -3 4 -6 -2 -5 -13z"/>
    <path d="M3360 1435 c0 -8 5 -15 10 -15 6 0 10 7 10 15 0 8 -4 15 -10 15 -5 0
    -10 -7 -10 -15z"/>
    <path d="M1290 900 c0 -69 0 -70 26 -70 20 0 25 4 20 16 -3 9 -6 40 -6 70 0
    47 -2 54 -20 54 -18 0 -20 -7 -20 -70z"/>
    <path d="M1740 900 c0 -63 2 -70 20 -70 18 0 20 7 20 70 0 63 -2 70 -20 70
    -18 0 -20 -7 -20 -70z"/>
    <path d="M2190 901 c0 -68 1 -71 24 -71 23 0 24 3 22 68 -1 61 -3 67 -23 70
    -22 3 -23 0 -23 -67z"/>
    <path d="M2640 900 c0 -68 1 -70 25 -70 24 0 25 2 25 70 0 68 -1 70 -25 70
    -24 0 -25 -2 -25 -70z"/>
    <path d="M3097 963 c-4 -3 -7 -35 -7 -70 0 -61 1 -63 25 -63 24 0 25 2 25 70
    0 61 -2 70 -18 70 -10 0 -22 -3 -25 -7z"/>
    <path d="M3550 901 c0 -63 2 -71 19 -71 22 0 28 18 27 85 -1 44 -4 50 -23 53
    -22 3 -23 0 -23 -67z"/>
    <path d="M4000 900 c0 -68 1 -70 25 -70 24 0 25 2 25 70 0 68 -1 70 -25 70
    -24 0 -25 -2 -25 -70z"/>
    <path d="M4450 910 c0 -50 3 -60 18 -60 14 0 15 -2 2 -10 -12 -8 -11 -10 6
    -10 19 0 21 6 23 70 2 69 2 70 -23 70 -25 0 -26 -2 -26 -60z"/>
    <path d="M4910 926 c0 -24 -3 -51 -6 -60 -4 -11 0 -16 12 -16 16 0 17 -2 4
    -10 -12 -8 -11 -10 8 -10 21 0 22 4 22 70 0 63 -2 70 -20 70 -17 0 -20 -7 -20
    -44z"/>
    <path d="M5360 968 c-1 -2 -2 -29 -3 -60 -2 -46 1 -58 13 -59 10 0 8 -3 -5 -9
    -18 -8 -18 -9 6 -9 25 -1 26 1 28 69 2 65 0 70 -18 70 -12 0 -21 -1 -21 -2z"/>
    </g>
  </svg>
