<?xml version="1.0" encoding="UTF-8"?>
<svg version="1.1" viewBox="0 0 1600 901" width="4000" height="2254" xmlns="http://www.w3.org/2000/svg">
<path transform="translate(0)" d="m0 0h1600v901h-1600z" fill="#F0F0F0"/>
<path transform="translate(318,271)" d="m0 0h595l1 23 5 245 1 50v38l-1 2h-634v-14l3-36 4-42 4-45 9-101 5-54 3-31 2-26 1-7z" fill="#EFEFEF"/>
<path transform="translate(309,139)" d="m0 0h987l5 3 12 13 9 11 4 4v2h2l4 5v2h2l8 10v1l-1076 1-2 1 1 2h-3l1 5-1 16-3 30-3 32-6 61-4 41-8 81-3 31-5 50-3 32-5 51-2 23v7l3 1 11 1h24l6 1 19-1 28 1 37 2h34l46 1 49-1 54 1h459l44-1h237l39 1h65l9 2v2h3l4 7 2 19v11l-4 4h-417l-1-3-11 1v2h-96l-2-2h-10l-1 2h-96l-1-3-10 1-2 2h-95l-2-2h-9l-2 2h-96l-1-2h-11v2h-96l-2-2h-9l-2 2h-95l-1-1h-10l-1 1h-95l-7-5-10-15-14-29-7-17-6-14-9-24-6-24-2-16v-7l4-17 9-3h23l6-5 20 2 6 7 2-1 1-14 2-16 7-64 5-50 11-107 9-91 4-6 5-5 11-13 12-14 12-13 3-4z" fill="#D2D5D8"/>
<path transform="translate(996,269)" d="m0 0h301l1 3 2 26 1 3 2 31 2 13 2 20 2 31 4 43 3 35 2 12 1 21 10 108v11l-1 1h-320l-1-3-3-82-8-226-1-43z" fill="#3E3D3B"/>
<path transform="translate(309,139)" d="m0 0h987l5 3 12 13 9 11 4 4v2h2l4 5v2h2l8 10v1l-1076 1-4 1 1-3 5-5 11-13 12-14 12-13 3-4z" fill="#D1D4D7"/>
<path transform="translate(318,271)" d="m0 0h595l1 23 5 245 1 50v38l-1 2h-634v-14l3-36 4-42 4-45 9-101 5-54 3-31 2-26 1-7zm1 10-2 13-16 178-5 58-2 20-6 65v12h585l20-1 8-1 2-10v-70l-1-70v-20l-1-43-1-75-1-36-1-10-6-8-39-1-212 1h-318l-2 1v-3z" fill="#D0D4D6"/>
<path transform="translate(785,346)" d="m0 0 22 1 8 3 8 7 8 5 3 3 6 2 7 6-1 7-4 2-2 3 1 20 2 4v10l-2 12-2 2h-4v11l-2 5v8l7 8 2 4 9 3 26 11 3 3-4-1-10-2-2 4-2-1v-5l-3 2-4 8h-2v-6l-3-1-2 2-2-4h-3l-1 2-2 2-4 11-8 12-1-3-2 2-2-3h-2l-3 11-4 10-1 6 1 2-3 5h-2l-2 8h-3v8l5-4 5 1 1-6 3-7 1 4-4 11-1 3v4h-11-2-3l-5-10v-2h-2l-7-9-3-8-4-13h-6l-1-5 5 1-5-11 1-3 4 8v2l4 1v2h2l4 10 1-3h4l3 7-4 6-2 2 2 5h2l7 14v2h2l-2-9 2-1-1-9-3-12-3-9-6-8-9-6-1-13-6-7-3-8-2-25-2-8v-6l-4-1-2-4-1-8v-13h2l-2-12-1-13-2-1-1-6 1-9 10-4 3-3 4-7 4-1v-2h2v-2z" fill="#A6968F"/>
<path transform="translate(995,270)" d="m0 0 1 3 1 43 9 253 2 58 320-1v-11l-10-108-1-21-2-12v-10l1 3h2l2 16 2 20 3 25 3 24 3 35 2 15v17l-1 12-3 3-16 2-48 1h-241l-17-3-13-4-1-3-5-2-8-19-8-16-4-13 1-8 7-17 4-10 2-16v-22l-2-82v-16l-1-31-1-46v-49l5-6 6-3h5z" fill="#D1D4D7"/>
<path transform="translate(418,666)" d="m0 0h11v20h2l4 4 7 1h66l11 1 5 5 1-27 1-2 3-1h7l1 1 1 25 2 5 10 2h76l7 2 1-32 1-4h12l3 9 4 2 8 1h63l10 1 4 4-2 1-88 1 1 3 3 2 13 1h65l9 3 1 5h2v-30l1-3h12l3 9 3 2 9 1h69l5 2 2 3-1 1h-89l2 6 18 1h64l8 3 2 2 1-29 1-1h10l1 1 1 29 3 3 25 1h57l8 1 1 4h-95l-2-2h-10l-1 2h-96l-1-3-10 1-2 2h-95l-2-2h-9l-2 2h-96l-1-2h-11v2h-96l-2-2h-9l-2 2h-95l-1-1-11-1v-35l2-1h7l1 1 1 30 4 1 19 1h64l7 1 1 1 1-35z" fill="#BCC3C3"/>
<path transform="translate(642,371)" d="m0 0h70v38l-1 52h-71v-32l1-54z" fill="#ECECEC"/>
<path transform="translate(341,372)" d="m0 0h70l-1 29-4 56-1 4h-71v-10l4-48 1-17z" fill="#EDECEC"/>
<path transform="translate(318,271)" d="m0 0h595l1 23 5 245 1 50v38l-1 2h-629v-2l626-1-1-7-3-151-3-167v-18l-7-2-1-3 3-1h-584l-3 1v-6z" fill="#B0AFAE"/>
<path transform="translate(568,373)" d="m0 0h67l-1 59-1 27h-68v-18l2-36z" fill="#eee"/>
<path transform="translate(494,374)" d="m0 0h66l-1 41-2 44h-68l1-26 3-53z" fill="#eee"/>
<path transform="translate(418,374)" d="m0 0h66v19l-1 10-1 26-2 30h-68l3-52z" fill="#eee"/>
<path transform="translate(785,346)" d="m0 0 22 1 8 3 8 7 8 5 3 3 6 2 7 6-1 7-4 2-2 3 1 20 2 4v10l-2 12-2 2h-4v11l-2 5v8l7 8 2 4 9 3 26 11 3 3-4-1-10-2-2 4-2-1v-5l-3 2-4 8h-2v-6l-3-1-2 2-2-4h-3l-1 2-2 2-4 11-6 8-1-2 6-10 2-8h-2l-4-4-1 2h-4l-4 2-1 3-6-5-6 1-2-2-3-6-12-2-9-6-4-2-10-10 1-3 2 1v3l6 1 3 3 2 4 3-1 3 3v2l5-1 5 1h5l1-2h3l1-5 4-5 4-7 4-4 4-6-1-24 1-1-7-2h-5l-1-3 9-1 1-3-10 1-5 2 2 1-1 4-2 2 1 8v5l3 1-1-5 5 5 5 4h5l1 4-5 3-3 3-3 7-2 2h-6l-1-2 3-2-1-2 1-2h-4l1-2 2 1v-3l-2-1 1-1-5-2v-2l-2-1 3-3-1-15 1-6 5-4 4-5 9-1v-3h-2l-2-18-8-3-5-1-1-2h-12l-12 2-5 3h-2v2h-2l1 3-3 1-2 4-3 7v19l-2-1-3-15-1-13-2-1-1-6 1-9 10-4 3-3 4-7 4-1v-2h2v-2z" fill="#403F3D"/>
<path transform="translate(846,481)" d="m0 0 2 4 4-2 2 2-1 6h2l2-5 3-5h2l1 5 3-3h7l4 2 5 1v23l-1 8h-2v12l2 13v6h2v13h-38l-9-1v-3l1-6h2v-2l-2-1h2l-2-5v-6l-1-2 1-9-3 6-2-1-3 4-5 14-4 10-2 1-1-4 2-3v-3l-4 9-2-4 3-6 1-5-3 8h-5l-6 5 1-10h3l1-8 3-1 2-5-1-3 4-12 5-13 3-1 2 2 2-1v3l9-15 3-8 3-3z" fill="#D2D5D7"/>
<path transform="translate(1030,537)" d="m0 0h80l2 5 1 20v21l-1 3h-81l-2-1-1-46z" fill="#EBEBEB"/>
<path transform="translate(1222,530)" d="m0 0h79l2 4 3 32v16l-2 1v-4h-79v-2h-2l-2-24-1-21z" fill="#5C8069"/>
<path transform="translate(1125,539)" d="m0 0h81l1 1 2 17 1 23-2 6h-80l-2-7-2-26v-12z" fill="#A27660"/>
<path transform="translate(418,666)" d="m0 0h11v20h2l4 4 7 1h66l11 1 5 5 1-27 1-2 3-1h7l1 1 1 25 2 5 10 2h76l7 2 1-32 3-3h8l1 1v34l-10 1-2 2h-96l-1-2h-11v2h-96l-2-2h-9l-2 2h-95l-1-1-11-1v-35l2-1h7l1 1 1 30 4 1 19 1h64l7 1 1 1 1-35z" fill="#BCC3C3"/>
<path transform="translate(213,660)" d="m0 0h1l3 12 1 3 4 2 3 1 24 1h50l2 1v2l3 1-1 1-86 1 3 5 5 2h76l3 1v2h2l2 5 1-33 1-1h11l3 10 6 2h46l31 1 5 4-2 1h-88l2 5 7 2h75l7 3 2 2 2 7-9-2h-70l-13-1-4-2-1-6-1-24h-9l1 36-1 1h-95l-2-1-2-6v-27z" fill="#BBC3C3"/>
<path transform="translate(994,274)" d="m0 0h1l1 11 4 116 6 168 2 58h319l-1 3h-318l-5-5-1-3-2-45-3-86-2-67-4-122v-25z" fill="#AAAAAB"/>
<path transform="translate(1033,220)" d="m0 0h76l1 1 1 12v21h-77l-1-8z" fill="#688570"/>
<path transform="translate(962,666)" d="m0 0h11l1 17v12l1 5h90 3l1-32h2v-2h11l1 17v15l4 1h36l52 1 2 1 1-33h12v35h62v1l-25 1h-255l-1-3h-10v-35z" fill="#AAA9A9"/>
<path transform="translate(1179,666)" d="m0 0h12l3 8 5 3 79 1 4 3v2l-89 1 1 4 5 1 78 1 6 3 2 5 2-30 2-1h7l2 2v34h75l-2 2h-144v-1l-37-1v-35h-11z" fill="#BCC3C3"/>
<path transform="translate(785,346)" d="m0 0 22 1 8 3 8 7 8 5 3 3 6 2 7 6-1 7-4 2-2 3 1 23-4 3v8l-2 2-1-20-4-11 1-7-7-2-2-1v-2l-9-2-15-3h-8l-12 2-5 3h-2v2h-2l1 3-3 1-2 4-3 7v19l-2-1-3-15-1-13-2-1-1-6 1-9 10-4 3-3 4-7 4-1v-2h2v-2z" fill="#1D1715"/>
<path transform="translate(794,373)" d="m0 0 13 4 2 1-1 8-2 6 2 3v6l-1 2h-2v2h-3l-2 11-1 13-1 1-9 1 2 2-10 3-1-2 5-5 2-3-9 5-3 5h-2l-1 2-3-2-2 3-2-6v-10h-2l1 11-1 2-4-2-2-11v-13h2l1-2 1 5v-18l2-6 3-3v-3l3-1v-2h2v-2l5-3h5l-2 2 8-1z" fill="#A5938A"/>
<path transform="translate(321,272)" d="m0 0h590l1 1 1 34 2 106 4 201v11l-1 3-2-1v-34l-4-202-2-91-1-24-79-1h-509z" fill="#5D836B"/>
<path transform="translate(1129,465)" d="m0 0h64l2 2-1 3-1-3-1 1 2 34h-64l-2-36z" fill="#3C3B39"/>
<path transform="translate(744,666)" d="m0 0h12l3 9 3 2 9 1h69l5 2 2 3-1 1h-89l2 6 18 1h64l8 3 2 2 1-29 1-1h10l1 1 1 29 3 3 25 1h57l8 1 1 4h-95l-2-2h-12l-1-1-14-1h-71l-6-2-3-4-1-26-1-1h-9z" fill="#BBC3C3"/>
<path transform="translate(1126,408)" d="m0 0h63v2h-2l1 2 2 33h-62l-1-1-2-30-1-4z" fill="#3C3B39"/>
<path transform="translate(1010,618)" d="m0 0 26 1 292 1 1 6-1 1h-312l-7-1z" fill="#282421"/>
<path transform="translate(790,372)" d="m0 0h13v3l9 1 5 3 1 11v7h2v3l-9 2-5 6-4 4v10l1 9-2 4v2l6 1v3 3l-3 1h4l1 3 1 2-4 2h6l2-2 3-8 7-4v-4l-6 1v-2l-4-2-4-4v3h-6l3-1-1-5-1-9 3-1-1-5 5-3 10-1 1 5h-11l1 2h6v2h6v3l1 23-7 10-3 3-5 8-3 6h-3l-1 3-2-1-1 2v-2l-6 1-4-1h-2v-2l-6-2-5-5-4-1v-2h-2v-3l-4 1-3-7-2-14v-7l-2-1h2v-3h2l1 12 1 3 2-4 3 3 3-2 3-5 6-4h3l-2 4-4 4 1 1 7-2-1-3 10-1 2-21 2-3h3v-2h2v-8l-2-4h2l1-8 1-5-11-3-4-1-7 3-10 1 2-2-1-2z" fill="#9E7865"/>
<path transform="translate(846,481)" d="m0 0 2 4 4-2 2 2-1 6h2l2-5 3-5h2l1 5 3-3h7l4 2 5 1v23l-1 8h-2v12l3 19v12h-25v-4l3-3 1-2 3-1 1-11 3-6v-10h1l3 14v-25l-2 2-3-1v-2l-9 4h-2l1-5h-6v-2l-3-1v-6l-3 10-2 2-2-6h3l1-6-2-1-4 9-4 7-3 7-3 5-1-4 4-10-6 13-4-2 4-6h-2l1-4 2-4h4l2-4 2 1 5-9h-3l-3 1 6-15 3-3z" fill="#D4D6D9"/>
<path transform="translate(315,269)" d="m0 0h598l1 1 1 22 4 180 2 89 1 59-1 7h-1l-3-134-4-199v-23l-596 1z" fill="#CACED0"/>
<path transform="translate(604,387)" d="m0 0h15v13l-1 22h5v12h-6v11l-13-1v-10h-24l-3-7v-5l8-10 14-19z" fill="#5C625F"/>
<path transform="translate(1288,666)" d="m0 0h11l3 8v2l5 1 33 1h38l5 2 1 3-83 1 2 4 2 1 29 1 44 1 8 3 4 6-1 5h-18v-1l-73-1-1-34-1-1h-9z" fill="#BCC4C4"/>
<path transform="translate(1219,533)" d="m0 0h2l2 32v12h2v3h77l2 6-1 6-2 2-4 1h-75l-5-5-2-16-1-20v-8z" fill="#312F2C"/>
<path transform="translate(661,387)" d="m0 0h34v12h-24v9l4-1h10l8 5 5 7v13l-6 8-8 5h-19l-8-4-3-4 6-9 4 2 5 2h10l4-1 1-8-3-3-6-1-5 2h-6l-7-3 2-20z" fill="#41413E"/>
<path transform="translate(517,387)" d="m0 0h16l8 4 3 3 2 10-4 8-4 4 5 2 3 5v7l-3 7-4 5-9 4h-16l-12-6-1-3 7-9h2l3 3 3 1h12l3-1v-7l-3-2-13-1v-12l14-1 2-2-1-5-1-1h-13l-5 2-5-7 1-4z" fill="#5C615F"/>
<path transform="translate(863,666)" d="m0 0h2l3 9 9 3h67l9 1 4 4-2 1h-89l3 5 11 2h71l5 2 3 5 1-30h1l1 35h-2l-1 2-1-3-15-1h-60l-15-1-4-4z" fill="#BBC3C3"/>
<path transform="translate(833,436)" d="m0 0h1v11l-1 2v8l7 8 2 4 9 3 26 11 3 3-4-1-10-2-2 4-2-1v-5l-3 2-4 8h-2v-6l-3-1-2 2-2-4h-3l-1 2-2 2-4 11-6 8-1-2 6-10 2-8h-2l-4-4-1 2h-4l-4 2-1 3-6-5-6 1-2-2-3-6-12-2-9-6-4-2-10-10 1-3 2 1v3l6 1 3 3 2 4 3-1 3 3v2l5-1 5 1h5l1-2 5 1 2-4h3l1-6 4-5 3-7 4-4v10l4-11h2l-1-3z" fill="#40403E"/>
<path transform="translate(442,387)" d="m0 0h14l8 4 4 6v12l-5 8-15 15 19 1v12h-40v-11l8-7 11-11h2v-2l5-5 1-7-3-2h-7l-6 4-5-2-4-4 1-4 8-6z" fill="#41413F"/>
<path transform="translate(1082,667)" d="m0 0h1l1 8 8 2 78 1 4 3v2l-87 1-3 1 2 3 3 1 17 1h62l8 3 1 8-58-1h-32l-4-2-1-2z" fill="#BCC3C3"/>
<path transform="translate(527,666)" d="m0 0h11l4 10 9 2h61l13 1 4 4-1 1-88 1 2 4 2 1 18 1h58l10 2 3 5 1 5-9-2h-77l-8-2-2-2-1-4-1-25h-10z" fill="#BBC2C2"/>
<path transform="translate(994,205)" d="m0 0h297l1 1 5 53v6l-4-1-3-31-2-21-1-2-293-1z" fill="#ABAEB1"/>
<path transform="translate(973,667)" d="m0 0h1l2 7 5 3 12 1h68l4 3v2l-45 1h-45l3 5 10 2h23l28-1h18l9 3 1 5h2l-2 4-2-1h-86l-4-1-2-5z" fill="#BCC3C3"/>
<path transform="translate(213,660)" d="m0 0h1l3 12 1 3 4 2 3 1 24 1h50l2 1v2l3 1-1 1-86 1 3 5 5 2h76l3 1v2h2l3 6-1 2-1-1-17-1h-73l-2-1-2-11v-6h3l-2-7v-8h-2z" fill="#BCC3C3"/>
<path transform="translate(873,626)" d="m0 0h39v1l-6 2h-616v-2z" fill="#ACAFB2"/>
<path transform="translate(529,667)" d="m0 0h7l1 1 1 25 2 5 10 2h76l7 2 1-32 3-3h8l1 1v34l-10 1-2 2h-96l-1-2-11-1v-34z" fill="#AAA8A8"/>
<path transform="translate(1124,412)" d="m0 0 2 2 2 30h53l9 1v2h2l-1 9-3 5-3 1h-57l-4-3-1-14v-29z" fill="#020101"/>
<path transform="translate(1128,467)" d="m0 0h1l1 15v20h65l1 2-1 9-2 5-2 1h-61l-2-1-1-3-1-17v-23z" fill="#030202"/>
<path transform="translate(1207,410)" d="m0 0h1l1 5 2 30h63v2l2 1-3 10-2 3-7 1h-53l-4-3-2-25v-14z" fill="#020101"/>
<path transform="translate(418,666)" d="m0 0h11v36l-10 1-2 2h-95l-1-1-11-1v-35l2-1h7l1 1 1 30 4 1 19 1h64l7 1 1 1 1-35z" fill="#A7A6A7"/>
<path transform="translate(1041,414)" d="m0 0h1l1 14v17l4-1h56l4 1v2h2l-1 9-3 5-2 1h-58l-4-4-1-21v-18z" fill="#020101"/>
<path transform="translate(1203,355)" d="m0 0h1l2 16 1 17h62v2h2l-2 10-2 4-2 1h-59l-3-3-2-24v-14z" fill="#020101"/>
<path transform="translate(1199,302)" d="m0 0h1l2 16 1 14 61 1v2h2l-1 8-3 6-3 1h-57l-3-3-2-25v-12z" fill="#020101"/>
<path transform="translate(1121,354)" d="m0 0h1l2 26v8h62l2 2-1 10-3 5h-61l-2-2-1-14v-28z" fill="#020101"/>
<path transform="translate(1039,359)" d="m0 0h1l1 22 1 7h62l1-13h1l1 15-3 13-2 2h-61l-2-2-1-16v-27z" fill="#020101"/>
<path transform="translate(1118,304)" d="m0 0h1l2 24v5h62v2h2l-3 13-3 2h-58l-3-2-2-35z" fill="#020101"/>
<path transform="translate(1036,304)" d="m0 0h1l1 13v16h63v2h2l-2 12-3 3h-59l-2-2-1-11z" fill="#020101"/>
<path transform="translate(315,280)" d="m0 0 4 1-3 36-14 155-5 58-2 20-7 77h2v2h-5v-14l3-36 4-42 4-45 9-101 5-54 3-31z" fill="#D2D5D8"/>
<path transform="translate(1296,269)" d="m0 0 2 3 2 26 1 3 2 31 2 13 2 20 2 31 4 43 3 35 2 12 1 21 10 108v7l-2-2-2-8-14-148-6-67-8-86-3-31v-9h2z" fill="#5A6F63"/>
<path transform="translate(1009,590)" d="m0 0h1l2 15 3 6v2l6 1 43 1 181 2h37l39 1 4 2h-299l-15-1-2 2z" fill="#312F2C"/>
<path transform="translate(1026,547)" d="m0 0h1l1 5 1 15v18l83 1v6l-3 3-5 1h-72l-5-3-4-8v-32z" fill="#33312E"/>
<path transform="translate(1033,220)" d="m0 0h76v1l-36 1-40-1zm38 2 5 2 16 7 12 5v2l-17 7-13 6-6-1-15-7-14-5v-2l15-6 7-2v-2z" fill="#D6D7D8"/>
<path transform="translate(962,666)" d="m0 0h11l1 17v12l1 5h90 3l1-3h9l-3 2h-5l-1 4h9v1l-11 1h-95l-1-3h-10v-35z" fill="#ABADAF"/>
<path transform="translate(318,271)" d="m0 0h595v36h-1l-1-34h-589v1l293 1v1l-295 1-3 1v-6z" fill="#A6968F"/>
<path transform="translate(1009,627)" d="m0 0h318l-1 3h-310l-7-2z" fill="#8E9083"/>
<path transform="translate(374,388)" d="m0 0h12l-1 22-3 35h-13l2-38 1-4-7 4h-3l-4-10 15-8z" fill="#42423F"/>
<path transform="translate(853,666)" d="m0 0h10l1 1 1 29 3 3 25 1h57l8 1 1 4h-95l-2-2-10-1v-35z" fill="#AAA8A8"/>
<path transform="translate(746,667)" d="m0 0h7l2 2 1 26 3 4 9 1h74l7 1 2 4h-96l-1-3h-11v-33z" fill="#ACAFB2"/>
<path transform="translate(846,481)" d="m0 0 2 4 4-2 2 2-1 6h2l2-5 3-5h2l1 5 3-3h7l4 2 5 1-1 12-5-2-3 1-1 3h-2l1-5-5 1-1 2 2 1-8 2v-7l-2 1-2 14-4 1v-2l-3-1v-6l-3 10-2 2-2-6h3l1-6-2-1-4 9-4 7-3 7-3 5-1-4 4-10-6 13-4-2 4-6h-2l1-4 2-4h4l2-4 2 1 5-9h-3l-3 1 6-15 3-3z" fill="#BAB7B6"/>
<path transform="translate(830,480)" d="m0 0 4 2 1 3h2l-1 8-6 10-1 5-2 1v-3l-2 2-2-3h-2l-3 11-4 10-1 6 1 2-3 5h-2l-2 8h-3l-1 2v-8l-1-4 1-7 3 3 5-15h-3l-2-3-3-1-2-3-1-9 6-4 5-5 2 6v9l2-1 5-9v-8l2-5 5-4h3z" fill="#C1B8B4"/>
<path transform="translate(1033,221)" d="m0 0h40l-3 3-9 2v2l-12 5-7 3h-3v2l9 2 13 6 13 5v1l-5 1h-35l-1-7z" fill="#61816C"/>
<path transform="translate(804,353)" d="m0 0h2l2 9 2-4h1l1 5 1-6 3 3-1 4v2l4 2-1 4 6-3h2v-2l9 1 7 3 3 4 1 5-4 2-2 3 1 23-4 3v8l-2 2-1-20-4-11 1-7-7-2-2-1v-2l-9-2-10-2v-3l-4-2 2-4 1-1-1-4 1-2h3z" fill="#0A0908"/>
<path transform="translate(785,346)" d="m0 0h6l-4 1v3l-5 1-1 7-1 2h2l-1 4-3-2 1 4-2 1 6 3 4 1 4-1 1-2 6 1 2 4h-10l-12 2-5 3h-2v2h-2l1 3-3 1-2 4-3 7v19l-2-1-3-15-1-13-2-1-1-6 1-9 10-4 3-3 4-7 4-1v-2h2v-2z" fill="#292320"/>
<path transform="translate(993,273)" d="m0 0 2 1-3 3v25l4 126 3 87 3 90 1 17 2 5-3-1-2-4-1-12-4-122-1-36-2-53-3-98v-24z" fill="#BBC3C3"/>
<path transform="translate(491,371)" d="m0 0h71v15l-4 75h-71v-23zm3 3-1 6-4 70v9h68l2-44 1-41z" fill="#666863"/>
<path transform="translate(417,371)" d="m0 0h70v11l-2 26-2 43-1 10h-71v-21l2-23 2-34 1-11zm1 3-4 47-2 38h68l2-30 1-26 1-10v-19z" fill="#6F6C67"/>
<path transform="translate(1217,542)" d="m0 0 2 2 3 39 1 2 81 1-3 6-2 1h-77l-2-2-2-17-1-16z" fill="#1B1411"/>
<path transform="translate(1010,618)" d="m0 0 26 1 289 1 2 2h-318z" fill="#140F0C"/>
<path transform="translate(1028,539)" d="m0 0h2l2 37 3 2 78 1-1 7h-81l-2-1z" fill="#A4958E"/>
<path transform="translate(778,375)" d="m0 0 3 1h-3zm15-1 4 2 3 9-1 4 1 2-2 2v2l-6-1 1 8-19 1-3 1-2-9-1-6 6-9 1-3h8z" fill="#C1B8B4"/>
<path transform="translate(1315,464)" d="m0 0 1 3h2l2 16 2 20 3 25 3 24 3 35 2 15v17l-1 5-3 1-6-64-5-54-1-21-2-12z" fill="#CDCFD1"/>
<path transform="translate(661,387)" d="m0 0h34v12h-24v9l2 1-9 6-4 2h-3l3-25z" fill="#63816D"/>
<path transform="translate(567,371)" d="m0 0h70v19l-2 54-1 17h-71v-22l1-10 1-37 1-20zm1 2-1 32-2 36v18h68l1-27 1-59z" fill="#546159"/>
<path transform="translate(750,498)" d="m0 0 8 3 5 6 2 6h2l3 9-1 6 5 1 3 6 2 9 4 10 2 6h-8l-3-9-4-14-4-15v-4h-2l-3-9v-3h-2l2 9-1 9-1 16h1l3 14 1 1 1-22 2 1 1 17 5 8-1 2h-12l-3-2v-5-2l-3-4 1-11 1-2 1-11 1-8-1-2-1-11-5-2v7l-1 6 2 2-4 1-3-2v-2l2-1v-7h2z" fill="#D0D1D4"/>
<path transform="translate(913,294)" d="m0 0h1l5 245 1 50v38l-1 2h-13l1-2 9-1-1-7v-78h1l1 52v34l1 1-1-67-4-194z" fill="#ADA9A7"/>
<path transform="translate(767,453)" d="m0 0 5 5 7 6 1 2 7 4 5 5 2 4 4 1v7l-3 5-4-1-1-2h-3l-2 4-8-5-4-6-2 1-3-8z" fill="#C0B6B1"/>
<path transform="translate(642,371)" d="m0 0h70v38l-1 52h-71v-32l1-27h1v54l-1 3h68v-46l1-40h-67v28h-1z" fill="#515753"/>
<path transform="translate(1289,667)" d="m0 0h7l2 2v34h75l-2 2h-74l-11-2v-16l1-19z" fill="#9C9890"/>
<path transform="translate(212,668)" d="m0 0h2l2 15h-3l2 17h83l9 1 1 1 1-33h1l1 35-1 1h-95l-2-1-2-6v-27z" fill="#A7A6A7"/>
<path transform="translate(762,854)" d="m0 0h76v7h-76z" fill="#A37760"/>
<path transform="translate(996,209)" d="m0 0h291l2 3 4 45 1 7 3 2h-6l-3-4-3-40-1-11-288-1z" fill="#D2D5D8"/>
<path transform="translate(836,498)" d="m0 0h3l2 2-6 9-2-1-2 5-1-2h-3l-2 5-1 3 3-1-2 4-1 3 2 3-3 8h-2l-1 3h-2l-1 5-3 8h-5l-6 5 1-10h3l1-8 3-1 2-5-1-3 4-12 5-13 3-1 2 2 2-1v3l5-8z" fill="#D2D4D6"/>
<path transform="translate(859,782)" d="m0 0h12v2l4 2 3 5v7l-4 6-5 3h-9l-7-6-1-3v-8l4-6z" fill="#657F6E"/>
<path transform="translate(647,670)" d="m0 0 4 6 11 2h63l10 1 4 4-2 1-88 1-2 2z" fill="#BCC4C4"/>
<path transform="translate(1178,668)" d="m0 0h12v35h62v1l-25 1h-39l-1-1-9-1v-4l6-1-6-1z" fill="#959389"/>
<path transform="translate(834,459)" d="m0 0 5 5 3 5 9 3 26 11 3 3-4-1-10-2-2 4-2-1v-5l-3 2-4 8h-2v-6l-3-1-2 2-2-4h-3l-1 2-2 2-4 11-6 8-1-2 6-10 2-8h-2l-4-4-1 2-2-3 5-6 2-6z" fill="#61615C"/>
<path transform="translate(538,670)" d="m0 0 2 2 2 4 9 2h61l13 1 4 4-1 1-88 1-2 1z" fill="#BCC4C4"/>
<path transform="translate(635,666)" d="m0 0h12l1 17-1 15 13 2h75l8 1v3l-1 1h-95l-2-3v-34h-10z" fill="#AAAAAB"/>
<path transform="translate(1124,581)" d="m0 0 2 4 2 1 79 1-1 5-2 1-62 1-16-1-2-2z" fill="#16100E"/>
<path transform="translate(429,667)" d="m0 0h1l3 9 8 2h71l6 2 3 3-2 1-89 1-1-1z" fill="#BCC4C4"/>
<path transform="translate(341,372)" d="m0 0h70l-1 29-4 56-1 4h-71v-10l4-48 1-17zm2 1-2 18-5 60v9h67l1-1 4-62 1-13v-11z" fill="#40433F"/>
<path transform="translate(1122,548)" d="m0 0h1l1 7 1 36 1 1 17 1 63-1 1-5h-79v-1h80l-1 7-3 2-16 1h-60l-5-3-2-3-2-18v-17z" fill="#312F2D"/>
<path transform="translate(525,670)" d="m0 0h1v32l2 1h-2v2h-96l-2-3 1-5 3 2 11 1h68l12 1 2 1z" fill="#ABAAAB"/>
<path transform="translate(1029,586)" d="m0 0 82 1-2 5-1 1h-77l-2-1z" fill="#16100E"/>
<path transform="translate(1041,414)" d="m0 0h1l1 14v17l4-1h56l4 1v3h-62l-1-1-1 7 2 5h60l1-3 1 3-4 3h-58l-4-4-1-21v-18z" fill="#16100D"/>
<path transform="translate(1179,666)" d="m0 0h12l1 17v13l1 2 8 1 82 1 1 1 2-3v5h8v1l-11 1h-56v-1l-37-1v-35h-11z" fill="#A9AAAB"/>
<path transform="translate(770,501)" d="m0 0 3 4 2 6 4 1v2h2l4 10 1-3h4l3 7-4 6-2 2 2 5h2l7 14v2h2l-2-9 4-2 2 9 5-4 5 1 1-6 3-7 1 4-4 11-1 3v4h-11-2-3l-5-10v-2h-2l-7-9-3-8-4-13h-6l-1-5 5 1-5-11z" fill="#CFCFD0"/>
<path transform="translate(1065,227)" d="m0 0h13l5 3 2 3v8l-4 5-2 1h-13l-5-3-3-4v-7l5-5z" fill="#60836D"/>
<path transform="translate(794,409)" d="m0 0h5v20l-1 1-9 1 2 2-10 3-1-2 5-5 2-3-10 4-4 2-2-2v-3l-2-1h2l-2-7h-2v-5l3 1 1 2 6-4h2l1 4-3 1h-4l10 1 6-3z" fill="#C0B7B3"/>
<path transform="translate(1128,467)" d="m0 0h1l1 15v20h65l1 3h-65l-2-1 1 13h50l11-1 3-3-1 5-2 1h-61l-2-1-1-3-1-17v-23z" fill="#1D1714"/>
<path transform="translate(659,782)" d="m0 0h15l5 5v6l-3 4 2 5 1 5h-7l-4-8-2-1v9h-7z" fill="#6C8172"/>
<path transform="translate(816,405)" d="m0 0h6l1 5h-11l1 2h6v2h6v3l1 21-2-4-6 1v-2l-4-2-4-4v3h-6l3-1-1-5-1-9 3-1-1-5 5-3z" fill="#A0755F"/>
<path transform="translate(874,519)" d="m0 0h1l1 9 2 5 1 6 1 18 2-1v4h-25v-4l3-3 1-2 3-1 1-11 3-6v-10h1l3 22 1-3z" fill="#C1B9B5"/>
<path transform="translate(682,782)" d="m0 0h6l9 11v2h2v-13h6v25h-5l-10-12-1 11-1 1h-6z" fill="#6B8373"/>
<path transform="translate(1219,533)" d="m0 0h2l2 32v11h-2l-3-32v14l2 28 2 6h77l5-5-1 5-2 2-4 1h-75l-5-5-2-16-1-20v-8z" fill="#312F2C"/>
<path transform="translate(794,373)" d="m0 0 13 4 2 1-1 8-2 6 2 3v6l-1 2h-2v2h-3l-2 11-1 8h-1v-9l1-6-5 1-2 2v-5-3l-6-2v-1l7 1-2-4 1-5 5 1v-3l2-1-1-3 1-3-2-5v-3l-3-1z" fill="#A6968F"/>
<path transform="translate(829,782)" d="m0 0h15l4 4v8l-3 3 2 4 2 6h-7l-4-7v-2h-3v9h-6z" fill="#627E6B"/>
<path transform="translate(1296,269)" d="m0 0 2 3 2 26 1 3 2 31 2 13 2 20v14l-1 3h-2l-3-27-4-44-3-31v-9h2z" fill="#59605D"/>
<path transform="translate(800,347)" d="m0 0h7l8 3 8 7 8 5 3 3 6 2 7 6-1 5-2-3-3-3-9-4-6-1v2l-9 4 1-5-5-1 2-6-3 4-2-6-2 4h-1l-1-10h-2l2 6h-2l-4-10z" fill="#3C3A37"/>
<path transform="translate(963,667)" d="m0 0h8l1 1v35l-11-1v-34z" fill="#030101"/>
<path transform="translate(854,667)" d="m0 0h8l1 1v34h-11v-34z" fill="#040202"/>
<path transform="translate(637,667)" d="m0 0h8l1 1v34h-11v-34z" fill="#020101"/>
<path transform="translate(529,667)" d="m0 0h7l1 1v34h-11v-34z" fill="#020101"/>
<path transform="translate(1036,304)" d="m0 0h1l1 13v16h63v3h-61l-1-1v11l1 1h57l4-3-1 5-2 1h-59l-2-2-1-11z" fill="#1B1411"/>
<path transform="translate(746,667)" d="m0 0h7l1 1v34h-11v-33z" fill="#060605"/>
<path transform="translate(1039,359)" d="m0 0h1l1 22 1 7h62l1-13h1l1 15-1 5-1-4h-63l-2-1 1 10 1 2 3 1h51l6-2 2-2-1 5-1 1h-61l-2-2-1-16v-27z" fill="#1C1613"/>
<path transform="translate(882,782)" d="m0 0h5l7 8 3 4 1-12h6v25h-5l-10-12-2-1v12h-5z" fill="#5E7D69"/>
<path transform="translate(790,372)" d="m0 0h13v3l9 1 5 3 1 11v7h2v3l-9 2-5 6-4 4v4h-2v-8l2-3h3v-2h2v-8l-2-4h2l1-8 1-5-11-3-4-1-7 3-10 1 2-2-1-2z" fill="#A37760"/>
<path transform="translate(1071,667)" d="m0 0h9l1 1v28l-1 1h-11v-29z" fill="#070505"/>
<path transform="translate(772,481)" d="m0 0 5 5 7 8 3 3 3 8 3 3 1-2h-2v-2l-2-1 2-6 2 1 4 8-1 4-1 1 2 4 1 3 2 1-1 4-1 3 3 12 2 2v14l-2-1-3-15-3-12-3-9-6-8-9-6-1-13-5-6z" fill="#9B7662"/>
<path transform="translate(420,667)" d="m0 0h7l1 1 1 34h-11v-34z" fill="#020101"/>
<path transform="translate(312,667)" d="m0 0h7l1 1 1 34-11 1v-35z" fill="#020101"/>
<path transform="translate(830,480)" d="m0 0 4 2 1 3h2l-1 8-6 10-1 5-2 1v-3l-2 2-2-3h-2l-3 11-4 10-2 1 1-6 4-15 5-9v-12l5-4h3z" fill="#A5938B"/>
<path transform="translate(1215,241)" d="m0 0h11l2 2-1 6 4 3 3-9 1-2 5 1 6 9v-10h4l1 3v7h8v3h-16l-2-2-6-1-1 3h-8l-4-4h-2v4l-5-1z" fill="#849588"/>
<path transform="translate(1288,666)" d="m0 0h11l1 17v12l2 4 70 1 14 2 2 2-1 1h-16v-1l-73-1-1-34-1-1h-9z" fill="#ACAFB2"/>
<path transform="translate(770,517)" d="m0 0 1 2h5l1-2 4 11 3 11 7 8v2h2l2 4-1 8-9-1-5-10-3-10h2l-1-4 1-3h-2l-6-10z" fill="#E9EAEA"/>
<path transform="translate(786,782)" d="m0 0h17v6h-11v3h11v6h-11v4h12v5h-18z" fill="#637C6C"/>
<path transform="translate(742,782)" d="m0 0h17v6h-11v3h11v6h-11v4h12v5h-18z" fill="#637C6C"/>
<path transform="translate(716,782)" d="m0 0h7l8 22v3h-6l-2-4-8-1-1 5h-7l3-10z" fill="#6F8576"/>
<path transform="translate(1306,379)" d="m0 0h1l2 17 4 43 3 35 2 12v16l-2 1-2-24v-10h-2l-2-18-6-63v-6h2z" fill="#5B7866"/>
<path transform="translate(951,782)" d="m0 0h7l7 19 1 6h-6l-1-5h-9l-1 5h-6l1-5z" fill="#667E6E"/>
<path transform="translate(634,782)" d="m0 0h6l1 19 5-1 1-2 1-16h6v19l-4 5-2 1h-8l-5-3-1-2z" fill="#687E6E"/>
<path transform="translate(1221,585)" d="m0 0 6 1 75 1-4 4h-75z" fill="#020101"/>
<path transform="translate(1180,241)" d="m0 0h18v2l3-2h9l3 3v7l-4 3h-7l-4-4v-6h-4v10l-5-1v-9h-4v9h-4l-1-4z" fill="#B8B8B7"/>
<path transform="translate(926,782)" d="m0 0h12l4 3-2 4-2 1-4-2h-5l-3 1v8l4 3 10-1 2 4-6 4h-9l-7-6-1-2v-9l3-5z" fill="#647E6D"/>
<path transform="translate(860,481)" d="m0 0h2l1 5 3-3h7l4 2 5 1-1 12-5-2-3 1-1 3h-2l1-5-5 1-1 2 2 1-6 1v-6-1l-6 1v-5z" fill="#BCB6B4"/>
<path transform="translate(824,816)" d="m0 0h9l5 3 3 3v8l-5 6h-12z" fill="#7A8F7E"/>
<path transform="translate(994,205)" d="m0 0h5l-2 2 285 1v1h-288z" fill="#BCC4C4"/>
<path transform="translate(1037,363)" d="m0 0h1l2 40 1 1h61l2-5h1v5l-4 3 5 1v1h-63l-6-6-1-7v-30z" fill="#312F2C"/>
<path transform="translate(788,472)" d="m0 0 7 2 9 1 4 6 1 2 6-1 5 5 1 3v8l-3 5h-2l-2-6v-6l-1-2h-3l-2 5-4 2-1 2-2-3-2-1 3-6-1-3-1-7-9-3z" fill="#A37861"/>
<path transform="translate(917,525)" d="m0 0h1l1 14 1 50v38l-1 2h-13l1-2 9-1-1-7v-78h1l1 52v34l1 1-1-67z" fill="#ACA7A5"/>
<path transform="translate(1030,539)" d="m0 0h1l2 31v6h77l2 3h-77l-4-3-1-15z" fill="#D2D5D8"/>
<path transform="translate(996,492)" d="m0 0h2l3 86 2 44 2 5-3-1-2-4-1-12-3-96z" fill="#BCC4C4"/>
<path transform="translate(791,438)" d="m0 0h4l-1 3 10 1v2l-10 1h-4l1 1h12l-3 2-7 3v2l3 1v3l4 1-1 4-4 1v-2h-6v-2l-3 1-3-7-1-4-2-6 6 1v-4l-3-1z" fill="#C1B8B4"/>
<path transform="translate(1142,473)" d="m0 0h6l4 4 1 2v11l-3 4h-8l-4-5-1-10 3-5z" fill="#D8D8D8"/>
<path transform="translate(809,425)" d="m0 0 5 5 5 4h5l1 4-5 3-3 3-3 7-2 2h-6l-1-2 3-2-1-2 1-2h-4l1-2 2 1v-3l-2-1 3-1-1-2-5-1 1-4 6-2z" fill="#3F3F3D"/>
<path transform="translate(742,817)" d="m0 0h12l3 3 1 4v7l-5 5h-11z" fill="#748D7B"/>
<path transform="translate(1035,307)" d="m0 0h1l1 30 1 11 1 1h61l1-5 1 4-3 3 2 2-22 1h-13l-25-1-5-4-1-1-1-12v-24z" fill="#312F2C"/>
<path transform="translate(517,387)" d="m0 0h16l8 4 3 3-1 3-4-5-4-2h-3l-5 6 1 2-12 2-5 2-5-7 1-4z" fill="#41423F"/>
<path transform="translate(1125,476)" d="m0 0h1l2 42h65l1-5 1 4-2 3-3 1-39 1h-15l-7-1-4-4-2-23v-13z" fill="#312F2C"/>
<path transform="translate(1199,302)" d="m0 0h1l2 16v13l-1 10 1 6h58l4-4-1 5-4 2h-57l-3-3-2-25v-12z" fill="#1B1411"/>
<path transform="translate(1138,416)" d="m0 0h7l3 3v5 2l2 3-1 6-4 2h-6l-5-4v-5l3-4h-2v-6z" fill="#DAD9D9"/>
<path transform="translate(1207,410)" d="m0 0h1l1 5v25l1 18 1 1h57l5-3-2 5-7 1h-53l-4-3-2-25v-14z" fill="#1A1310"/>
<path transform="translate(1178,668)" d="m0 0h10l1 1v22h-11z" fill="#100F0F"/>
<path transform="translate(846,472)" d="m0 0 5 2 12 3 16 7 1 2-4-1-10-2-2 4-2-1v-5l-3 2-4 8h-2v-6l-3-1-2 2-2-4h-3l-1 2-1-2z" fill="#5A635E"/>
<path transform="translate(833,436)" d="m0 0h1v11l-4 9-6 7-5 2v2l-8 4-3-1 1-3h2l1-3h3l1-6 4-5 3-7 4-4v10l4-11h2l-1-3z" fill="#1C1512"/>
<path transform="translate(1124,412)" d="m0 0 2 2v29l1 15 1 1h60l1-3 1 3-5 3h-57l-4-3-1-14v-29z" fill="#1B1411"/>
<path transform="translate(1289,667)" d="m0 0h7l1 1v23h-10v-23z" fill="#10100E"/>
<path transform="translate(785,534)" d="m0 0 4 5v2h2l7 14v2h2l-2-9 4-2 2 9 5-4 5 1 1-6 3-7 1 4-4 11-1 3v4h-11-2-3l-5-10v-2h-2l-7-9v-3h1z" fill="#CBCACA"/>
<path transform="translate(1039,420)" d="m0 0h1l2 38 3 3h58l3-2 2-3-1 6-8 2h-53l-5-2-2-3-1-7v-29z" fill="#312F2C"/>
<path transform="translate(1203,355)" d="m0 0h1l1 7v23l1 17 12 1h32l15-1 3-2-1 4-2 1h-59l-3-3-2-24v-14z" fill="#1A1310"/>
<path transform="translate(1122,419)" d="m0 0h1l2 40 3 2h57l4-2 2-3-1 5-3 2-12 1h-47l-5-3-2-7-1-19v-11z" fill="#312F2C"/>
<path transform="translate(1220,416)" d="m0 0h7l5 4 1 2v9l-3 5-7 1-5-3v-3h3l1 2h6l2-5-2 1h-8l-3-4v-6z" fill="#D8D9D9"/>
<path transform="translate(764,782)" d="m0 0h6v19h12v6h-18z" fill="#5C7D68"/>
<path transform="translate(765,515)" d="m0 0 2 2 2 11 5 1 3 6 2 9 4 10 2 6h-8l-3-9-4-14-5-19z" fill="#BDB5B2"/>
<path transform="translate(1127,444)" d="m0 0h54l9 1 1 3h-63z" fill="#140E0C"/>
<path transform="translate(806,782)" d="m0 0h20v5h-7v19h-6v-18h-7z" fill="#657B6B"/>
<path transform="translate(832,458)" d="m0 0h2l2 5-1 8-3 6-5 5-2-1-1-4-8-1-3 1 2-4 5-4h2l1-2 2 1 1-3 5-4-1 7h2z" fill="#302D2A"/>
<path transform="translate(1217,360)" d="m0 0h7l4 3v2l-4-1-5-1-2 2v3l1-1h6l4 2 1 2v6l-3 3h-8l-4-4-1-3v-9z" fill="#DFE0E0"/>
<path transform="translate(846,481)" d="m0 0 2 4 4-2 2 2-1 6 2 1-1 9h-4l-1-5-1 3-3-1 2-3-5 3-1-3-2 2h-3l3-11 4-4z" fill="#A48E84"/>
<path transform="translate(1119,363)" d="m0 0h1l2 40 1 1h61l3-4-1 5-6 2h-56l-5-5-1-7-1-26z" fill="#312F2C"/>
<path transform="translate(491,371)" d="m0 0h71v15l-1 21h-1l-1-5v-22l1-6h-66v6h-1v-7l-1-1-1 4z" fill="#889189"/>
<path transform="translate(834,425)" d="m0 0 4 3v2h-3v14h-1l-1-3h-2l-1 6-2 6-3-2 1-1v-7l-4 7v3l-5 5-2 6-3 2-3 3-1-5 6-9 3-5 4-4 4-5h2l2-9 2 2 1-5h2z" fill="#363330"/>
<path transform="translate(1118,304)" d="m0 0h1l1 8v32l1 3h58l3-2-1 4-2 1h-58l-3-2-2-35z" fill="#1B1411"/>
<path transform="translate(781,402)" d="m0 0h9l4 2-2 9-4 5-5 2-11-1 1-2h6l-1-2 1-2-4 1 3-3 4-2v-2l-6-1 1-2z" fill="#7C6152"/>
<path transform="translate(785,346)" d="m0 0h6l-4 1v3l-5 1-1 7-1 2h2l-1 4-5-3 1 3-3 3-1 8h-2v-2l-4-1 1-6 1-2-2-2 4-7 4-1v-2h2v-2z" fill="#423F3B"/>
<path transform="translate(836,498)" d="m0 0h3l2 2-6 9-2-1-2 5-1-2h-3l-2 5-1 5-3-3-3 8-4 2v-3l3-9 4-11 3-1 2 2 2-1v3l5-8z" fill="#BDB5B1"/>
<path transform="translate(822,486)" d="m0 0 1 2v10l-5 8-3 12-2 5v9l1 2-3 5h-2l-2 8h-3l-1 2v-8l-1-4 1-7 3 3 5-15 5-14 4-6v-8z" fill="#BFB7B4"/>
<path transform="translate(1291,206)" d="m0 0h1l5 53v6l-4-1-3-31-2-21-1-3 3 1z" fill="#B2B6B8"/>
<path transform="translate(1200,365)" d="m0 0h1l3 39h63l2-4-1 5-2 1-12 1h-47l-5-3-2-9-1-16v-12z" fill="#312F2C"/>
<path transform="translate(642,371)" d="m0 0h70v17h-2v-15h-67v28h-1z" fill="#747E72"/>
<path transform="translate(1123,380)" d="m0 0h1v8h62l2 3h-63l-2-2z" fill="#1B1411"/>
<path transform="translate(874,519)" d="m0 0h1l1 9 2 5 1 6 1 18 2-1v4h-15l2-6 4-4 1-7z" fill="#A6968F"/>
<path transform="translate(804,353)" d="m0 0h2l2 9 2-4h1l1 5 1-6 3 3-1 4-1 2 2 1-1 7h-12v-3l-4-2 2-4 1-1-1-4 1-2h3z" fill="#060404"/>
<path transform="translate(861,816)" d="m0 0h8l3 1 2 5-1 4-2 3 3 5v2h-3l-4-6-3-1v7h-3z" fill="#798F7E"/>
<path transform="translate(769,816)" d="m0 0h8l3 1 2 5-1 4-2 3 3 5v2h-3l-4-6-3-1v7h-3z" fill="#798F7E"/>
<path transform="translate(1206,386)" d="m0 0 1 2h62v2h2l-1 2-63-1z" fill="#1B1411"/>
<path transform="translate(480,439)" d="m0 0 3 2v10l-1 10h-71v-11h1v9h68z" fill="#75716C"/>
<path transform="translate(1061,227)" d="m0 0 3 1-3 3h-2v9l2 4 3 1-4 1-21-8v-2l15-6z" fill="#EAEBEB"/>
<path transform="translate(1211,445)" d="m0 0h63v2l2 1h-64z" fill="#120D0B"/>
<path transform="translate(1202,332)" d="m0 0 62 1v2h2l-1 4v-3h-61z" fill="#130E0C"/>
<path transform="translate(1121,333)" d="m0 0h62v3h-61z" fill="#130D0B"/>
<path transform="translate(1039,333)" d="m0 0h62v3h-61z" fill="#120D0B"/>
<path transform="translate(1121,354)" d="m0 0h1l1 9v36l1 3 6 1h44l9-1 4-4-2 6-1 1h-61l-2-2-1-14v-28z" fill="#1B1411"/>
<path transform="translate(751,475)" d="m0 0 3 1-4 2-6 2v15l-4-4v-9l-3 1v10h-2v-2l-5 1-7-2 1-5 15-6z" fill="#D8DADD"/>
<path transform="translate(813,854)" d="m0 0h25v7h-25z" fill="#5D836B"/>
<path transform="translate(762,854)" d="m0 0h25v7h-25z" fill="#5D836B"/>
<path transform="translate(750,498)" d="m0 0 8 3 5 6 2 6h2l3 9-2 3-2-8-2 1-3-9v-3h-2l2 9-1 9-1 12-2 5h-1l1-17 1-8-1-2-1-11-5-2v7l-1 6 2 2-4 1-3-2v-2l2-1v-7h2z" fill="#CAC8C8"/>
<path transform="translate(385,564)" d="m0 0 5 1h3v2h2v-3h16 3 2l1 2 4-2 1 6h-8l-3-2-2 2h-8v-2h-3v2l-5-1-5 1-5-1 1-4z" fill="#969691"/>
<path transform="translate(427,486)" d="m0 0h5l3 7 3-3 2-3h4v11l-1 4h-2l-1-8-4 6h-2l-3-6-1 8-4 1v-11z" fill="#5D6460"/>
<path transform="translate(830,480)" d="m0 0 4 2 1 3h2v5h-2l-2 4-4 2h-2l-5 1v-12l5-4h3z" fill="#9F7A67"/>
<path transform="translate(1574)" d="m0 0h16v13h-7l-4-4-7-4z" fill="#D2D5D8"/>
<path transform="translate(1084,541)" d="m0 0h5l3 2 2-2 7 1 1 1v7l-1 1h-7l-1-3-4 3h-5l-2-2v-6z" fill="#41443F"/>
<path transform="translate(1204,420)" d="m0 0h1l3 39 3 2h53l7-1 3-4-1 5-4 2h-60l-3-2-2-9-1-13v-16z" fill="#312F2C"/>
<path transform="translate(777,413)" d="m0 0h2l1 4-3 1h-4l10 1h3v2l-4 3 1 4-7 3h-4l-1-4-2-1h2l-2-7h-2v-5l3 1 1 2z" fill="#C2BAB7"/>
<path transform="translate(1154,241)" d="m0 0h3l1 2v8h8v-10h12v2h-9v3h9v2h-8v3h9v2l-14 1h-10l-1-1z" fill="#7F8E82"/>
<path transform="translate(1039,359)" d="m0 0h1l1 22 1 9h-2l1 10 1 2 3 1h51l6-2 2-2-1 5-1 1h-61l-2-2-1-16v-27z" fill="#1B1411"/>
<path transform="translate(811,401)" d="m0 0 2 1v2l3 2-9 3 2 1-1 4-2 2 1 8v5l2 2-6 1-1 4h6l-1 3-6-2v-2l-2-1 3-3-1-15 1-6 5-4z" fill="#3D3C3A"/>
<path transform="translate(360,486)" d="m0 0h3l1 5 5-1v2h2l1 2v6l-3 3h-10v-12z" fill="#60655E"/>
<path transform="translate(409,374)" d="m0 0 2 2-2 38-3 43h-1l-1-7v-10l1-9 3-47z" fill="#6D716B"/>
<path transform="translate(331,487)" d="m0 0h10l2 2v5l-2 2 1 7-5-3-3-3v6h-4v-11z" fill="#696C68"/>
<path transform="translate(1312,469)" d="m0 0h2l3 33h1l2 13 1 12v12l-2 3-2-16-5-53z" fill="#5A6E63"/>
<path transform="translate(769,453)" d="m0 0 3 1v3l6 1 3 3 2 4 3-1 3 3v2l5-1 5 1h5l-1 3 3 3-2 1-12-2-9-6-4-2-10-10z" fill="#444442"/>
<path transform="translate(1028,539)" d="m0 0h2l2 37 3 2 78 1v4h-2v-3h-79l-2-2-1-5z" fill="#AEAFB0"/>
<path transform="translate(529,667)" d="m0 0h7l1 1v25h-1v-24h-9l1 25h9v8h-11v-34z" fill="#3C3D39"/>
<path transform="translate(1057,360)" d="m0 0h4v13h3v2h-3v5h-3v-5h-10l1-4z" fill="#D8D7D8"/>
<path transform="translate(1296,269)" d="m0 0 2 3 2 26v6l-1 1v11h2l-1 11h-1l-3-26-2-21v-9h2z" fill="#5A6A61"/>
<path transform="translate(451,490)" d="m0 0h9v9l-1 4h-10l-2-2v-8z" fill="#82817D"/>
<path transform="translate(909,782)" d="m0 0h6v25h-6z" fill="#5E7B69"/>
<path transform="translate(878,503)" d="m0 0 2 2v12l-1 12 3 19v8l-2 3-1-2-1-18-2-9-1-2-1-14 2-1v-4h2z" fill="#B3AFAE"/>
<path transform="translate(1215,241)" d="m0 0h11l2 2-1 6 4 3 3 2h-8l-4-4h-2v4l-5-1z" fill="#9AA69E"/>
<path transform="translate(416,372)" d="m0 0 2 2v11l-3 36-2 34h-1l-1-5v-10l2-23 2-34z" fill="#626661"/>
<path transform="translate(566,395)" d="m0 0h1v23l-2 41h19l-2 2h-19v-22l1-10 1-23z" fill="#545F59"/>
<path transform="translate(803,816)" d="m0 0h2l9 11 1 3h2v-13h2v19l-4-2-7-9-2-1v12h-3z" fill="#758A78"/>
<path transform="translate(1133,360)" d="m0 0h12v3h-10v4h8l4 4-1 7-3 2h-8l-4-4v-2l4 1 1 2h7v-5l-2-2h-5l-4 1v-7z" fill="#DAD9D8"/>
<path transform="translate(1116,308)" d="m0 0h1l1 26 1 14 2 1h58l3-1v2l-2 1h-61l-3-5-1-7-1-21z" fill="#312F2C"/>
<path transform="translate(776,362)" d="m0 0h2l1 4-2 1 6 3 4 1 4-1 1-2 6 1 2 4h-10l-12 2-5 3h-2v2l-3-1v-3-3h3v2h2v-9l3-3z" fill="#3C3B38"/>
<path transform="translate(861,788)" d="m0 0h7l3 3v7l-4 3h-6l-1-3h-2v-7z" fill="#E9E9EA"/>
<path transform="translate(972,701)" d="m0 0 1 2h91l-3 2h-89l-1-2z" fill="#A6968F"/>
<path transform="translate(915,541)" d="m0 0h1l1 52v34l1 1 1-3v4h-13l1-2 9-1-1-7z" fill="#ACA3A0"/>
<path transform="translate(1041,454)" d="m0 0h2l2 5h60l1-3 1 3-4 3h-58l-4-4z" fill="#1B1411"/>
<path transform="translate(345,333)" d="m0 0h9l3 3-1 7-3 3h-8z" fill="#5B5F5A"/>
<path transform="translate(1131,305)" d="m0 0h7l4 3v6l-7 6-2 1 10 1v3h-15l1-5 8-6 1-5-1-1h-5l-1 3h-4l2-5z" fill="#D6D5D5"/>
<path transform="translate(604,404)" d="m0 0h1v18h-14l7-11z" fill="#E1E2E2"/>
<path transform="translate(860,481)" d="m0 0h2l1 5 3-3h7l4 2h4v5l-15-1-3 2h-8l2-5z" fill="#A5948C"/>
<path transform="translate(445,333)" d="m0 0h10v2h-7v3h6l-1 3h-5v2l14 1v-2l-5-1v-4l5-1 2 2h-5v2l4 1v4l-5 1h-13z" fill="#757C76"/>
<path transform="translate(1143,475)" d="m0 0 5 1 2 3v11l-2 2-5-1-2-3v-11z" fill="#434541"/>
<path transform="translate(1311,439)" d="m0 0h2l3 35 2 12v16l-2 1-2-24v-10h-2l-1-5z" fill="#5B7565"/>
<path transform="translate(754,669)" d="m0 0h1l1 33 1 1 92 1v1h-94l-1-1z" fill="#949186"/>
<path transform="translate(963,667)" d="m0 0h8l1 1v35l-11-1v-8h9l1-25h-10z" fill="#434743"/>
<path transform="translate(473,488)" d="m0 0h3v2h3v3h-4l1 6 2 1v3l-5-1-1-1-1-7h-5v8l-4 1v-12l11-1z" fill="#676B68"/>
<path transform="translate(854,667)" d="m0 0h8l1 2h-10v25h8l2 1v7h-11v-34z" fill="#3B3C39"/>
<path transform="translate(637,667)" d="m0 0h8l1 1v34h-11v-7l2-1h8v-25h-10z" fill="#4B524C"/>
<path transform="translate(1071,667)" d="m0 0h9l1 1v28l-1 1h-11v-29h1v23h10l-1-22-8-1z" fill="#758576"/>
<path transform="translate(409,491)" d="m0 0h7l3 2v7h-2v2l-2 1h-6l-3-5 1-5h2z" fill="#6D6E69"/>
<path transform="translate(349,490)" d="m0 0 5 1 3 2v6l-1 2h-2v2h-7l-2-2v-7z" fill="#666A63"/>
<path transform="translate(1213,305)" d="m0 0h6l4 4-1 4-1 2 4 2-1 5-3 3h-7l-5-4v-2h4l2 3 5-1-1-5-4-1v-2l5-1-2-4-5 1-4 1 2-4z" fill="#D6D5D5"/>
<path transform="translate(1078,697)" d="m0 0h2v6h37v2h-36l-12-2 1-4z" fill="#A69892"/>
<path transform="translate(420,667)" d="m0 0h7l1 1 1 34h-11v-7l2-1h7v-25h-9z" fill="#3C3E3A"/>
<path transform="translate(827,820)" d="m0 0h8l2 2v8l-3 3h-7z" fill="#F0F0F0"/>
<path transform="translate(1199,302)" d="m0 0h1l2 16v13l-2 10h-1l-2-19v-12z" fill="#18120F"/>
<path transform="translate(745,820)" d="m0 0h8l2 2v8l-3 3h-7z" fill="#EFEFEF"/>
<path transform="translate(312,667)" d="m0 0h7l1 1 1 34-11 1v-8l9-1v-25h-9z" fill="#49524B"/>
<path transform="translate(328,553)" d="m0 0 9 1 12-1 6 2-2 4h-6l-5-1-3 1h-6l-1 2v-2l-6-1z" fill="#9A9B94"/>
<path transform="translate(821,359)" d="m0 0 4 2 9 4 6 2 7 6-1 5-2-3-3-3-9-4-6-1v2l-7 3 2-7z" fill="#1A1411"/>
<path transform="translate(845,817)" d="m0 0h12v2h-10v6h9v3h-8v5h9v3h-12z" fill="#6C8874"/>
<path transform="translate(787,817)" d="m0 0h11v2h-9v6h9v3h-8v5h9v3h-12z" fill="#6F8A77"/>
<path transform="translate(832,512)" d="m0 0 1 3-5 12-4 11-3 14-2-2-4 9-2-4 3-6 3-10 2-3h2l3-12z" fill="#EDEEEE"/>
<path transform="translate(833,436)" d="m0 0h1v11l-4 9-3 4h-3l-1-5v-4l-1-4 5-5v10l4-11h2l-1-3z" fill="#2C2825"/>
<path transform="translate(954,790)" d="m0 0 3 4 5-1 4 12v2h-6l-1-5-5-2-2-3 1-5z" fill="#7E9284"/>
<path transform="translate(759,408)" d="m0 0h1l2 10h-2v2l3 1 1 13-1 2-4-2-2-11v-13h2z" fill="#AA978F"/>
<path transform="translate(743,669)" d="m0 0h1l1 25h8l1 1v7h-11z" fill="#424340"/>
<path transform="translate(740,498)" d="m0 0 3 1v10l-1 3 2 1-1 5-2 3-1 8-3-3v-3l-2 2 1-7v-3l1-4h3z" fill="#D1D4D7"/>
<path transform="translate(790,352)" d="m0 0 4 1h4l3 3 2 6-4 2-2-3-3 1-2 4-3 1-1-3 2-7 2-2z" fill="#42403D"/>
<path transform="translate(377,491)" d="m0 0h7l3 4v3l-9 1h7l-2 4h-6l-3-4v-5z" fill="#575A54"/>
<path transform="translate(1178,692)" d="m0 0h11v12l-11-1v-4l6-1-6-1z" fill="#5A7564"/>
<path transform="translate(770,517)" d="m0 0 1 2h5l1-2 4 11 2 8h-3l-1 2-1-2 1-3h-2l-6-10z" fill="#CAC8C8"/>
<path transform="translate(1136,419)" d="m0 0 3 4 5 1-1 2-5 3 1 4h8l-1-7 3 1 1 6-3 3-2 1h-6l-5-4v-5l3-4h-2z" fill="#DEDEDF"/>
<path transform="translate(1050,416)" d="m0 0h16l-1 4-5 8-2 8h-3l1-9 5-8h-11z" fill="#D3D4D4"/>
<path transform="translate(848,500)" d="m0 0h1v7l5 2 1 3-2 3 4 2-4 2-4 18h-1v-17h2l-1-9-1-3h-2l1-7z" fill="#BEB9B8"/>
<path transform="translate(841,470)" d="m0 0h6l13 6-2 1-9-3-3-2-2 6-4 8-4 11-6 8-1-2 6-10 2-8h2l1-6 1-1z" fill="#3C3A37"/>
<path transform="translate(1315,464)" d="m0 0 1 3h2l2 16 2 20-3 1-2-18-2-12z" fill="#CBCBCD"/>
<path transform="translate(729,816)" d="m0 0h6l3 3-1 5v3l1 5-1 3-2 1h-9v-3h8v-5l-5-1v-2l5-2 1-3h-8v-3z" fill="#6D8773"/>
<path transform="translate(1287,692)" d="m0 0h10v12l-11-1 1-4 5-1-5-1z" fill="#597463"/>
<path transform="translate(372,336)" d="m0 0h7l3 2v6l-3 2-6-1v4h-2v-12z" fill="#60655F"/>
<path transform="translate(494,332)" d="m0 0h3l-1 13-8 1-2-2v-5l2-3h6z" fill="#5D605B"/>
<path transform="translate(424,332)" d="m0 0h2v14h-9l-2-6 3-4 6 1z" fill="#616C63"/>
<path transform="translate(817,355)" d="m0 0 5 1 9 6 2 3-6-2-6-4 1 6-4 8-1-3v-3l-4-1 4-5z" fill="#3F3E3B"/>
<path transform="translate(1231,221)" d="m0 0 5 1 6 9v2h-4l-1-2-6-1-1 3h-3l2-7z" fill="#748D7B"/>
<path transform="translate(765,515)" d="m0 0 2 2 5 18v2l4-1-2 3 5 15v6l-3-1-5-20-4-12z" fill="#A18A7F"/>
<path transform="translate(1215,221)" d="m0 0h9l2 4-10-1 2 6 4 1v-2h4l-2 4-1 3h-6l1-2-5-3v-8z" fill="#738A79"/>
<path transform="translate(824,442)" d="m0 0 2 1-4 7v3l-5 5-2 6-3 2-3 3-1-5 6-9 3-5 4-4z" fill="#3D3D3A"/>
<path transform="translate(513,336)" d="m0 0h8v9l-1 1h-8l-2-2v-5z" fill="#60645E"/>
<path transform="translate(1181,221)" d="m0 0h9l1 3-7-1v2l6 1 3 2-1 4-1 1h-9l-2-4h4v2h5l-1-2-7-2-1-5z" fill="#6B8573"/>
<path transform="translate(764,782)" d="m0 0 4 2h-2v21h15v-2h-9v-1h10v5h-18z" fill="#687269"/>
<path transform="translate(827,527)" d="m0 0 2 1v7l-5 14-4 10-2 1-1-4 3-4 4-16z" fill="#C3BCBA"/>
<path transform="translate(822,486)" d="m0 0 1 2v10l-5 8-3 12-2 5h-2l-4 16h-1l1-10 6-16 4-10 3-5v-8z" fill="#CDCDCD"/>
<path transform="translate(477,336)" d="m0 0h7v9l-9 1-2-2v-5z" fill="#666863"/>
<path transform="translate(337,564)" d="m0 0h9 2l4 1h-2v2l2 1v3l-5-1-2 1h-6l-3-1v-5z" fill="#ACADA8"/>
<path transform="translate(1205,540)" d="m0 0h2l2 17 1 20-3-1-2-25z" fill="#B2988B"/>
<path transform="translate(818,539)" d="m0 0 1 4-4 11-1 3v4h-8v-6l3-4 5 1 1-6z" fill="#BFB7B3"/>
<path transform="translate(766,383)" d="m0 0 3 1-2 5-2 11-1 2v19l-4-1 1-6v-19l2-6 3-3z" fill="#9D7560"/>
<path transform="translate(770,501)" d="m0 0 3 4 8 17 5 15-1 2-3-5-5-15h-6l-1-5 5 1-5-11z" fill="#8E7A6F"/>
<path transform="translate(487,490)" d="m0 0h9l2 2v11h-3v-9h-5v8h-3z" fill="#6C736E"/>
<path transform="translate(1165,221)" d="m0 0h4v10l5-1 1-9h3v11l-1 1h-9l-2-1-1-3z" fill="#728B78"/>
<path transform="translate(816,405)" d="m0 0h6l1 5h-11l1 2 3 2v2h-7l-2-2v-3-2l5-3z" fill="#A28576"/>
<path transform="translate(900,275)" d="m0 0h9l1 2 1 23v24h-1l-1-23v-18l-7-2-1-3 3-1z" fill="#A9A2A1"/>
<path transform="translate(787,347)" d="m0 0h13l4 11h-3l-1-4-5-2-1 2-7-3z" fill="#1C1613"/>
<path transform="translate(405,336)" d="m0 0 8 1v9h-9l-1-1v-6z" fill="#4F544F"/>
<path transform="translate(1236,537)" d="m0 0h6l2 1 1 6-4 4-5-2-1-7z" fill="#3F3E3C"/>
<path transform="translate(1121,354)" d="m0 0h1l1 9v13l-1 23h-1l-1-10v-28z" fill="#16100E"/>
<path transform="translate(1140,241)" d="m0 0h11v2h-8v3h8v2h-8v3h9v2h-12z" fill="#5D7C69"/>
<path transform="translate(808,441)" d="m0 0h2l1 2h4v-2l3 1-4 9-2 2h-6l-1-2 3-2-1-2 1-2h-4l1-2 3 1z" fill="#474644"/>
<path transform="translate(791,438)" d="m0 0h4l-1 3 10 1v2l-14 2-1 2-4-2-1-2h2v-4l-3-1z" fill="#A68D81"/>
<path transform="translate(854,492)" d="m0 0 2 1 7-1-3 9h-1v-7l-2 1-2 14-4 1v-2l-3-1v-2h2v-4h4z" fill="#A6958D"/>
<path transform="translate(427,486)" d="m0 0h5l2 4-1 4h-2l-1 8-4 1v-11z" fill="#696F69"/>
<path transform="translate(1038,541)" d="m0 0h6l3 2v7l-1 1h-8z" fill="#6B6D6A"/>
<path transform="translate(821,525)" d="m0 0h4l1 3-3 8h-2l-1 3h-2v-3l-4 1 4-9h2z" fill="#C2BAB7"/>
<path transform="translate(431,336)" d="m0 0 6 1 1 1v6l-2 2h-6l-2-3 1-5z" fill="#505650"/>
<path transform="translate(1167,241)" d="m0 0h11v2h-9v3h9v2h-8v3h9v2h-12z" fill="#5F7C6A"/>
<path transform="translate(1084,541)" d="m0 0h5l3 3-1 5-2 2h-5l-2-2v-6z" fill="#DDDCDC"/>
<path transform="translate(1118,304)" d="m0 0h1l1 8-1 32h-1l-2-31z" fill="#1A1310"/>
<path transform="translate(1270,410)" d="m0 0 3 1 3 35h-2l-2-9-2-21z" fill="#5A6860"/>
<path transform="translate(636,373)" d="m0 0h1v17l-1 31h-1l-1-16v-19z" fill="#90908B"/>
<path transform="translate(836,498)" d="m0 0h3l2 2-6 9-2-1-2 5-4-4 6-9z" fill="#C6C0BF"/>
<path transform="translate(785,350)" d="m0 0 5 2 3 2-1 5h-2l-1 2-5-3-4 2 2-9z" fill="#282421"/>
<path transform="translate(785,346)" d="m0 0h6l-4 1v3l-5 1-1 7-1 2h2l-1 4-2-4h-3v-3l3-3h-4v-2h2v-2z" fill="#625F59"/>
<path transform="translate(872,511)" d="m0 0h1v27l-2-1-1-5-1-18-2-1 4-1z" fill="#EEEEEF"/>
<path transform="translate(937,400)" d="m0 0 2 1 2 6h-4l1 4v7l-1 2-3-1 1-6-4-1 3-4-1-3z" fill="#D3D6D9"/>
<path transform="translate(404,564)" d="m0 0h7 3 2l1 2 4-2 1 6h-8l-3-2-2 2h-5z" fill="#7E877E"/>
<path transform="translate(1312,469)" d="m0 0h2l3 33h1l1 11-3-1-3-27z" fill="#59655F"/>
<path transform="translate(751,475)" d="m0 0 3 1-4 2-6 2v15l-4-4v-9l-3-1 4-3z" fill="#D1D4D7"/>
<path transform="translate(1300,301)" d="m0 0h1l2 34-1 3h-2l-1-11 2-11h-2l-1-12h2z" fill="#667D6D"/>
<path transform="translate(1261,299)" d="m0 0 2 1 3 29v5l-3-2-2-22z" fill="#5A6860"/>
<path transform="translate(1147,543)" d="m0 0 4 1 2 2v5l-2 2h-5l-3-5 2-4z" fill="#434341"/>
<path transform="translate(1054,305)" d="m0 0h2l1 3v17h-3v-15l-3 2h-3l1-3z" fill="#D9D9D9"/>
<path transform="translate(1220,533)" d="m0 0h1l2 32v11h-2l-2-21z" fill="#383735"/>
<path transform="translate(451,490)" d="m0 0 8 1v7l-3-3-6-1 1 5 3 2-6 1-1-1v-8z" fill="#666865"/>
<path transform="translate(762,388)" d="m0 0 2 1-2 6v19l-2-1-3-15 1-7z" fill="#444341"/>
<path transform="translate(491,376)" d="m0 0 2 4v18l-1 17h-1l-1-13v-17z" fill="#717670"/>
<path transform="translate(1265,354)" d="m0 0 3 1 2 22v11h-2z" fill="#5A6B61"/>
<path transform="translate(899,782)" d="m0 0h5v25h-5v-2h3v-21h-2v11h-1z" fill="#5F6F65"/>
<path transform="translate(832,458)" d="m0 0h2l2 5-1 8-3 6-5 5-2-1 6-10z" fill="#191310"/>
<path transform="translate(876,539)" d="m0 0h3l1 18 2-1v4h-7z" fill="#927869"/>
<path transform="translate(848,518)" d="m0 0 1 2-2 21-2 2-1-4 1-2-2-1 2-16z" fill="#F1F1F1"/>
<path transform="translate(833,507)" d="m0 0 2 3-2 3-3 5-4 9-4-2 4-6h-2l1-4 2-4h4z" fill="#8A7C75"/>
<path transform="translate(1191,467)" d="m0 0h2l1 2 2 27v8l-2-2-1-5z" fill="#5A6B61"/>
<path transform="translate(809,418)" d="m0 0h11l1 2-2 9-5-2-3-3 3-1z" fill="#A6968F"/>
<path transform="translate(790,372)" d="m0 0h13v3l2 1-7-1-4-1-7 3-10 1 2-2-1-2z" fill="#9A725E"/>
<path transform="translate(362,336)" d="m0 0h5l2 2v4l-7 1h6v2l-7 1-2-2v-5z" fill="#626964"/>
<path transform="translate(1318,498)" d="m0 0h1l1 5 2 2 1 4v14l-3 4-2-20z" fill="#C5C5C6"/>
<path transform="translate(857,494)" d="m0 0h2l1 6h1v6l2 1-6 3-2-1v-8z" fill="#C9C9CA"/>
<path transform="translate(876,524)" d="m0 0h2l3 16 1 16-2 3-1-2-1-18z" fill="#BCB6B4"/>
<path transform="translate(863,515)" d="m0 0 1 2-2 8-3-1-2 12h-1l-1-5-2-2 2-1-1-2 3-5-2-1 3-3z" fill="#F1F1F1"/>
<path transform="translate(821,500)" d="m0 0h2l-8 24-3 3 1-6 4-15z" fill="#A48A7D"/>
<path transform="translate(784,412)" d="m0 0 6 2-2 4-5 2-11-1 1-2h6v-3h5z" fill="#A58879"/>
<path transform="translate(1179,242)" d="m0 0h1v10l-10-1v-3h8v-2h-9v-3z" fill="#DCDEDE"/>
<path transform="translate(460,576)" d="m0 0 8 1-1 5-9-1-1-2-3 3h-3l-1-5h9z" fill="#979B94"/>
<path transform="translate(1049,541)" d="m0 0h7l2 2v3h-2l2 5-4-2-3-2v4h-2z" fill="#424540"/>
<path transform="translate(785,534)" d="m0 0 4 5v2h2l6 12-1 4-3-6v-2h-2l-7-9v-3h1z" fill="#C4BFBE"/>
<path transform="translate(1187,410)" d="m0 0h2l1 3 2 27v6l-2-1-1-3z" fill="#5A6860"/>
<path transform="translate(1153,241)" d="m0 0h1v11l-1 2h-13v-1h12v-2h-9v-3h8v-2h-8v-1h9z" fill="#D1D3D5"/>
<path transform="translate(1159,221)" d="m0 0h4v11l-1 1h-8l-1-4 6 1z" fill="#7B8F7F"/>
<path transform="translate(1133,360)" d="m0 0h12v3h-10v4l5 1-4 2-4 1v-7z" fill="#D1D2D2"/>
<path transform="translate(502,491)" d="m0 0h7v2h-5v2l6 2-1 5-1 1h-6l-1-3h6l-1-2-5-2z" fill="#5C6960"/>
<path transform="translate(1135,315)" d="m0 0 2 1-2 4-2 1 10 1v3h-15l1-5z" fill="#D1D3D4"/>
<path transform="translate(399,488)" d="m0 0h3v3h3v2h-3v7h3l-1 3-5-1v-8h-2l1-4z" fill="#585F5A"/>
<path transform="translate(1222,418)" d="m0 0 6 1 1 6-2 2-6-1-1-6z" fill="#444542"/>
<path transform="translate(846,378)" d="m0 0h1v9l-3 3-4 1-1-6 4-5h3z" fill="#7E7C75"/>
<path transform="translate(1219,369)" d="m0 0 5 1 2 2-1 5-1 1h-5l-2-3 1-5z" fill="#454743"/>
<path transform="translate(794,359)" d="m0 0 2 2 2-2 1 4 4 1-2 4v2l2 2-3 1-4-4-3-2v-6z" fill="#25201D"/>
<path transform="translate(635,695)" d="m0 0 10 1 1 6h-11z" fill="#3E3D3B"/>
<path transform="translate(916,593)" d="m0 0h1v34l1 1 1-3v4h-13l1-2 9-1z" fill="#A6968F"/>
<path transform="translate(874,534)" d="m0 0h1v9l-1 7-5 5-2 5h-3l1-4 1-5h2l1-6 3 3z" fill="#AEB0B2"/>
<path transform="translate(468,490)" d="m0 0 3 1-1 3h-4v8l-4 1v-12z" fill="#7C7E7A"/>
<path transform="translate(347,335)" d="m0 0h6l2 2-1 5-2 2h-5z" fill="#DDDEDE"/>
<path transform="translate(900,276)" d="m0 0h7l-3 2h-3l1 2 7 3-1 4-5-4-5-2-13-2v-1z" fill="#BEBFBE"/>
<path transform="translate(563,439)" d="m0 0h1l1 19 19 1-2 2h-19z" fill="#879083"/>
<path transform="translate(773,362)" d="m0 0 4 1-3 4-1 8h-2v-2l-4-1 1-4 3-5z" fill="#6F6158"/>
<path transform="translate(1246,241)" d="m0 0h4l1 3v7h8v2h-11l-2-8z" fill="#788A7B"/>
<path transform="translate(1215,241)" d="m0 0h11l-1 3-7-1 1 3 3 2h-4l1 5h-4z" fill="#6C8473"/>
<path transform="translate(1139,427)" d="m0 0h6l2 2v4l-2 1h-6l-2-2 1-4z" fill="#434440"/>
<path transform="translate(841,406)" d="m0 0 2 3v10h-1v-9l-2 1 1 7-2 1-1 3h-2l-1 2 1-7v-6l3-3h2z" fill="#3E3E3B"/>
<path transform="translate(212,668)" d="m0 0h2l2 15h-3l-1 4h-1v-16z" fill="#AFB3B6"/>
<path transform="translate(355,566)" d="m0 0h13l-1 5h-10l-2 1z" fill="#A2A49D"/>
<path transform="translate(1213,305)" d="m0 0h6l4 4-1 4h-2l-1 3-4-1v-2l5-1-2-4-5 1-4 1 2-4z" fill="#ddd"/>
<path transform="translate(1123,553)" d="m0 0h2l2 26 1 1v6l-3-1-1-4z" fill="#393836"/>
<path transform="translate(1268,537)" d="m0 0h7l1 5v2l1 3-3-1-1-2-3-1 1 4h-2z" fill="#454B45"/>
<path transform="translate(1220,416)" d="m0 0 4 1-3 3v6l7 1v2h-8l-3-4v-6z" fill="#DFDFDF"/>
<path transform="translate(800,347)" d="m0 0h7l-2 2 4 5 3-1v2l-3 3h-2l-1-5h-2l2 6h-2l-4-10z" fill="#514740"/>
<path transform="translate(862,773)" d="m0 0h5l5 5v2h-5l-1-3h-3v2h-5l1-3h2z" fill="#6B776F"/>
<path transform="translate(879,517)" d="m0 0 2 2 1 12v17h-1l-3-19z" fill="#D2D5D8"/>
<path transform="translate(778,490)" d="m0 0 4 5 2 4-1 6-5-2z" fill="#3F3D3B"/>
<path transform="translate(406,422)" d="m0 0h1v20l-1 15h-1l-1-7v-10z" fill="#6B6E69"/>
<path transform="translate(566,372)" d="m0 0h1l1 14v19l-3 1v-14z" fill="#8B8D87"/>
<path transform="translate(1306,379)" d="m0 0h1v13l1 10v12l-2-4-2-22v-6h2z" fill="#595F5D"/>
<path transform="translate(1059,369)" d="m0 0 1 4h4v2h-3v5h-3v-5h-10l1-4h2v2h8z" fill="#E6E6E7"/>
<path transform="translate(1071,541)" d="m0 0 4 2 2 3 1-5h2v10l-4-2-2-3-1 5h-2z" fill="#484B47"/>
<path transform="translate(750,498)" d="m0 0 8 3-2 2-5-2v7l-1 6 2 2-4 1-3-2v-2l2-1v-7h2z" fill="#CBCACA"/>
<path transform="translate(1178,692)" d="m0 0h11l-1 5h-10z" fill="#171514"/>
<path transform="translate(1070,692)" d="m0 0h10v5h-11z" fill="#1B1A19"/>
<path transform="translate(431,565)" d="m0 0h11v5h-2v-4h-2l1 4-5 1-4-1z" fill="#989C96"/>
<path transform="translate(798,528)" d="m0 0 2 1 2 9 2 2v14l-2-1-3-15-1-3z" fill="#866F63"/>
<path transform="translate(852,489)" d="m0 0 1 2 2 1-1 9h-4l-1-5-1 3-3-1 2-5 4-1z" fill="#A17F6E"/>
<path transform="translate(861,479)" d="m0 0 12 2 7 4-3 1-4-2-7-1-2 4-2-1z" fill="#8F7967"/>
<path transform="translate(810,429)" d="m0 0h1l1 5 2 1v2h-9l-3-1 1-4z" fill="#16100E"/>
<path transform="translate(1204,243)" d="m0 0 5 1 1 1v5l-7 1-1-6z" fill="#E7E7E8"/>
<path transform="translate(1203,241)" d="m0 0h7l3 3v7l-2 2h-7l4-1v-2h2l-2-6-5-1z" fill="#63816D"/>
<path transform="translate(1193,221)" d="m0 0h12v2h-4v10h-3v-10h-5z" fill="#5E836B"/>
<path transform="translate(365,577)" d="m0 0h13l-1 5h-12l1-2 2 1v-2h-3z" fill="#9D9C96"/>
<path transform="translate(347,553)" d="m0 0 7 1v4l-5 1h-4-2l-1-4z" fill="#A1A49F"/>
<path transform="translate(394,490)" d="m0 0h2v4h-4l-1 9h-3v-12h5z" fill="#6B6E69"/>
<path transform="translate(769,453)" d="m0 0 3 1v3l6 1 5 5-1 4-3-1-10-10z" fill="#534F4B"/>
<path transform="translate(1070,223)" d="m0 0 9 2 4 3-3 1-2-1h-14l-3-2z" fill="#D6D6D7"/>
<path transform="translate(1078,697)" d="m0 0h2l1 7-12-1 1-4z" fill="#5A7664"/>
<path transform="translate(1288,666)" d="m0 0h11l1 17-1 12h-1l-1-26-1-1h-9z" fill="#ABADAF"/>
<path transform="translate(1320,539)" d="m0 0 2 1 2 21v8l-2-2-1-10v-11h-2z" fill="#5C7D68"/>
<path transform="translate(1063,541)" d="m0 0h3l4 10-8-2v2h-2l2-7z" fill="#585955"/>
<path transform="translate(409,491)" d="m0 0h7l3 2v7h-2l-1-5h-7l-1 3h-2l1-5h2z" fill="#5A5E59"/>
<path transform="translate(446,333)" d="m0 0h9v2h-7v3h6v2h-7v4h7v1h-8z" fill="#4D534E"/>
<path transform="translate(1201,241)" d="m0 0h2l1 3-1 5v2h5l1 3h-7l-3-3v-8z" fill="#7E9082"/>
<path transform="translate(820,517)" d="m0 0h3l1 3 3-2-2 4-5 6h-2l-1 3-1-2z" fill="#E0E1E2"/>
<path transform="translate(1318,483)" d="m0 0h2l2 20-3 1-2-20z" fill="#D6D9DB"/>
<path transform="translate(836,506)" d="m0 0 2 4-3 6-3 7-3 5-1-4 5-11z" fill="#A89993"/>
<path transform="translate(792,497)" d="m0 0 2 1 4 8-1 4-3-1v-3h-2v-2l-2-1z" fill="#A37760"/>
<path transform="translate(1140,474)" d="m0 0 3 1-1 2-1 11-3 1-1-10z" fill="#D3D0CE"/>
<path transform="translate(412,426)" d="m0 0h1l1 5v11l-1 13h-1l-1-5v-10z" fill="#797D78"/>
<path transform="translate(774,402)" d="m0 0h7l-1 2-3 1 5 1v1l-9 1-5 2 1-4z" fill="#A37F6C"/>
<path transform="translate(1081,245)" d="m0 0 2 2-9 4-6-1-7-3v-1h18z" fill="#D9DADB"/>
<path transform="translate(1185,241)" d="m0 0h12v2h-4v10h-2l-1-10h-5z" fill="#5C7D68"/>
<path transform="translate(729,816)" d="m0 0h6l3 3-1 5-3 2v-3l1-3h-8v-3z" fill="#7E8E7E"/>
<path transform="translate(1287,692)" d="m0 0h10l-1 5h-9z" fill="#151312"/>
<path transform="translate(397,576)" d="m0 0 5 1 5-1v6h-4l-1-2-1 2h-4z" fill="#8F928B"/>
<path transform="translate(1157,543)" d="m0 0 6 1v4h-2l-1 2-3-1-1 4-1-1v-8z" fill="#554D46"/>
<path transform="translate(453,565)" d="m0 0h9v5h-11l-1-4 3 1z" fill="#939D94"/>
<path transform="translate(1193,543)" d="m0 0h5v2h-5v2h5v2h-5l2 2h4v2h-7l-1-1v-8z" fill="#434341"/>
<path transform="translate(873,519)" d="m0 0h1v23l-2 5h-1l-1-7v-8h1l1 5z" fill="#CCCDCF"/>
<path transform="translate(613,434)" d="m0 0h2v8l-1 1h-7l2-5z" fill="#5C826A"/>
<path transform="translate(523,332)" d="m0 0h3v14h-4z" fill="#8A8A85"/>
<path transform="translate(1207,221)" d="m0 0h4v12h-4z" fill="#7A8F7F"/>
<path transform="translate(1293,537)" d="m0 0h2l4 8v2h-2v-2h-5v2h-2l2-9z" fill="#434642"/>
<path transform="translate(821,536)" d="m0 0 2 1-6 17-2 5-2-4 3-6 3-10z" fill="#D1D4D7"/>
<path transform="translate(759,516)" d="m0 0h2l-1 8-1 12-2 5h-1l1-17z" fill="#B5ADAA"/>
<path transform="translate(379,493)" d="m0 0 5 1 2-1 1 5-9 1-2 1 1-6z" fill="#7B857D"/>
<path transform="translate(1217,360)" d="m0 0h7l4 3v2l-4-1-5-1-4 2-1 8h-1v-9z" fill="#CFCFCF"/>
<path transform="translate(906,272)" d="m0 0h5l1 1v11l-2 4-1-12-4-1z" fill="#57625C"/>
<path transform="translate(787,552)" d="m0 0h3l4 3v6h-6z" fill="#BAAFAA"/>
<path transform="translate(365,553)" d="m0 0 12 1-2 2 2 1v2l-5-1-5 1-2-1z" fill="#9A9A94"/>
<path transform="translate(798,457)" d="m0 0 5 1 1 5-1 1-10 1-2-1v-3h4v2l4-2 1-3z" fill="#A6968E"/>
<path transform="translate(837,510)" d="m0 0h1l-1 9-3 7h-4l2-5 4-9z" fill="#CAC8C9"/>
<path transform="translate(841,494)" d="m0 0h1v8l-3 7-2-1 1-5 1-3-3-1-2 1 1-3 5-2z" fill="#ADA8A7"/>
<path transform="translate(1142,473)" d="m0 0h6l4 4v11l-2 1-1-10-2-3-5-1z" fill="#E2E2E2"/>
<path transform="translate(925,431)" d="m0 0 3 1v2l2 4-1 2-4-1 2 2v3l-3-1-1-7h2l-1-4z" fill="#D2D5D8"/>
<path transform="translate(804,348)" d="m0 0h6l5 5 1 5-3-4-5 1z" fill="#1E1917"/>
<path transform="translate(1181,221)" d="m0 0h9l1 3-7-1v2l4 1-2 2-5-1-1-5z" fill="#758A7B"/>
<path transform="translate(1056,563)" d="m0 0 5 1 1 1 1-2h4v4l-9 1-3-2z" fill="#C4C6C8"/>
<path transform="translate(1246,537)" d="m0 0 4 2 2 3v-5h2l1 10h-3l-3-5v5h-2z" fill="#3F3E3C"/>
<path transform="translate(487,490)" d="m0 0 5 1 3 3h-5v8h-3z" fill="#777E77"/>
<path transform="translate(841,470)" d="m0 0h6l13 6-2 1-9-3-3-2-2 4-2-1z" fill="#464844"/>
<path transform="translate(499,336)" d="m0 0h2l1 7h3l1-6h2v6l-2 3h-6l-1-2z" fill="#585E59"/>
<path transform="translate(1180,241)" d="m0 0h4v12h-3l-1-4z" fill="#6D8A77"/>
<path transform="translate(825,542)" d="m0 0 1 2-4 10-3 6-2-4 3-4 2-9z" fill="#C5C2C2"/>
<path transform="translate(1315,483)" d="m0 0h2l1 3v16l-2 1z" fill="#6E8976"/>
<path transform="translate(815,366)" d="m0 0 4 2-1 5 4 5-9-2-4-2 4-1 2 1z" fill="#1B1512"/>
<path transform="translate(384,337)" d="m0 0h2l1 6h3l1-6h2v7l-3 2h-5l-1-1z" fill="#4D4E4B"/>
<path transform="translate(387,576)" d="m0 0h9l-2 1v3l2 2h-10z" fill="#878F87"/>
<path transform="translate(1183,543)" d="m0 0 5 1v2l-6-1v6h4l1-2-2-1h4l-1 5h-6l-2-2v-6z" fill="#41403E"/>
<path transform="translate(366,491)" d="m0 0 5 1 1 2v6l-3 2h-5v-2l4-1v-5l-3-2z" fill="#4A4D49"/>
<path transform="translate(784,426)" d="m0 0h3l-2 4-8 6-3 3 1-4 3-5z" fill="#7A6154"/>
<path transform="translate(1146,426)" d="m0 0 3 1 1 6-3 3-2 1h-6l1-3 7-1z" fill="#CFCECD"/>
<path transform="translate(840,410)" d="m0 0h2v14l-2 1v-2h-2l-1 2 1-6 2-2-1-6z" fill="#1A1512"/>
<path transform="translate(811,401)" d="m0 0 2 1v2l3 2-9 3 2 1-2 4-1-5-2-1 5-5z" fill="#43423F"/>
<path transform="translate(1296,269)" d="m0 0 2 3v9l-2 2-2-3v-9h2z" fill="#636C67"/>
<path transform="translate(342,564)" d="m0 0 5 1 5-1-2 1v2l2 1v3h-4v-2h-2v-3h-3l-1 4z" fill="#99968F"/>
<path transform="translate(809,551)" d="m0 0 3 1-1 7-5 1 1-7z" fill="#675348"/>
<path transform="translate(350,491)" d="m0 0 6 1 1 1v6l-3 3-4-1 3-2v-5l-4-2z" fill="#4B4E4A"/>
<path transform="translate(1219,362)" d="m0 0 5 1 4 3-10 2-2 1 1-5z" fill="#484C48"/>
<path transform="translate(774,545)" d="m0 0 3 3 2 8v4l-3-1-2-8z" fill="#9B8174"/>
<path transform="translate(1238,538)" d="m0 0 4 1 1 1v5l-4 1-2-2v-5z" fill="#5C8069"/>
<path transform="translate(813,517)" d="m0 0 2 2-2 4h-2l-4 16h-1l1-10 4-11z" fill="#CAC9CA"/>
<path transform="translate(836,366)" d="m0 0 4 1 7 6-1 5-2-3-3-3-5-3z" fill="#73786D"/>
<path transform="translate(770,528)" d="m0 0 4 1 3 6-1 4v-3l-4 1-2-5z" fill="#CED0D2"/>
<path transform="translate(740,498)" d="m0 0 3 1v10l-3 6-2-1 2-10z" fill="#BEB6B2"/>
<path transform="translate(498,493)" d="m0 0h3l1 3 5 2v2h-6l-1 2h-2z" fill="#D0CFCF"/>
<path transform="translate(829,440)" d="m0 0h2l-1 7-2 6-3-2 1-1v-6l1-2h2z" fill="#3D3C3A"/>
<path transform="translate(760,426)" d="m0 0 3 1 1 7-1 2-4-2-1-7z" fill="#C3BBB8"/>
<path transform="translate(773,372)" d="m0 0h5l-2 4-5 2v2l-3-1v-3-3h3v2h2z" fill="#363431"/>
<path transform="translate(1297,305)" d="m0 0h2v11h2l-1 11h-1l-2-16z" fill="#595F5D"/>
<path transform="translate(835,787)" d="m0 0h6l1 5-1 1h-6z" fill="#DEDEDF"/>
<path transform="translate(330,564)" d="m0 0h6l-3 1v2l2 1v3l-4-1-1-2-1 2-3-1-1-4h2v2h2z" fill="#989991"/>
<path transform="translate(786,521)" d="m0 0h4l1 6-1 2-4-1-1-6z" fill="#79655B"/>
<path transform="translate(363,494)" d="m0 0h6v5l-1 1h-5l-1-5z" fill="#DCDAD9"/>
<path transform="translate(414,564)" d="m0 0h2l1 2 4-2 1 6h-8l-1-5z" fill="#909089"/>
<path transform="translate(1084,541)" d="m0 0h5l1 3-6-1 1 6 6-1-2 3h-5l-2-2v-6z" fill="#42423E"/>
<path transform="translate(803,530)" d="m0 0 2 3 1 9-2 7-1-3v-5l-1-4z" fill="#C3BCBA"/>
<path transform="translate(777,413)" d="m0 0h2l1 4-3 1h-4l-2 2-4-1v-5l3 1 1 2z" fill="#BEB4B0"/>
<path transform="translate(812,402)" d="m0 0h14l2 4-3-1h-12z" fill="#1B1411"/>
<path transform="translate(1303,335)" d="m0 0h1l1 10v9h-2l-1-5v-9z" fill="#7B9181"/>
<path transform="translate(467,334)" d="m0 0h2v2h3v2h-3v6l3 1-5 1-1-10z" fill="#4E524E"/>
<path transform="translate(378,552)" d="m0 0h2v2h5l-1 5h-6z" fill="#B1ADA9"/>
<path transform="translate(1227,537)" d="m0 0h5v3l-4-1v5h4 2l-1 3-4 1-3-2-1-6z" fill="#3F3E3C"/>
<path transform="translate(1095,543)" d="m0 0 5 1v5l-4 1-2-2z" fill="#DFDFDF"/>
<path transform="translate(402,490)" d="m0 0h4l1 10h-5v-7h3v-2z" fill="#DDDBDB"/>
<path transform="translate(480,439)" d="m0 0 3 2v10l-1 10h-1l-1-8z" fill="#858A82"/>
<path transform="translate(1228,428)" d="m0 0h2l-1 5-1 1h-6v-4-1z" fill="#50554F"/>
<path transform="translate(1139,418)" d="m0 0 5 1 1 4-1 1h-5l-1-5z" fill="#434441"/>
<path transform="translate(773,357)" d="m0 0 2 1v2l4 1-8 2-1 4-2-1 1-2-2-2 4-1z" fill="#373633"/>
<path transform="translate(784,357)" d="m0 0 1 2 4 1v4h-2l-1 2-5-7z" fill="#070504"/>
<path transform="translate(1136,543)" d="m0 0 5 1 1 2h-6l1 5 5-1-1 3h-5l-3-3 1-5z" fill="#3D3D3B"/>
<path transform="translate(1285,537)" d="m0 0h3l1 10h-2l-1-6-1 6-3-1 1-4z" fill="#3F3E3C"/>
<path transform="translate(833,460)" d="m0 0 3 3-1 8-2 5h-2z" fill="#070504"/>
<path transform="translate(1124,412)" d="m0 0 2 2v11l-3 1v-10z" fill="#140F0C"/>
<path transform="translate(479,492)" d="m0 0h1v10l-1-3h-4v-6z" fill="#E2E0E0"/>
<path transform="translate(785,464)" d="m0 0 5 5 2 4-5-2-5-5z" fill="#403F3D"/>
<path transform="translate(787,442)" d="m0 0h17v2l-8 1-9-1z" fill="#D3D0CF"/>
<path transform="translate(796,355)" d="m0 0h2l2 3v4h-4-2l-1 2-1-4 2-3h2z" fill="#977766"/>
<path transform="translate(782,351)" d="m0 0h3l1 4 4 2-5 1-5 2z" fill="#3A3937"/>
<path transform="translate(346,334)" d="m0 0 2 1-1 9 8-1-2 3h-8z" fill="#444542"/>
<path transform="translate(397,334)" d="m0 0h2v3l2 1h-2v6h2v2h-4v-8h-2v-2h2z" fill="#525752"/>
<path transform="translate(1146,545)" d="m0 0 5 1 1 3-3 3-3-1-1-4z" fill="#A37760"/>
<path transform="translate(876,539)" d="m0 0h3v12l-3-1z" fill="#A18171"/>
<path transform="translate(759,506)" d="m0 0h2l3 7v4l-3 1-2-7z" fill="#ECECED"/>
<path transform="translate(349,494)" d="m0 0h5v5l-5 1-1-5z" fill="#E4E5E5"/>
<path transform="translate(481,491)" d="m0 0h3v11h-3z" fill="#6D786F"/>
<path transform="translate(846,481)" d="m0 0 2 3-3 1-1 2-5 3 1-5 3-3z" fill="#99735E"/>
<path transform="translate(831,391)" d="m0 0 1 2h2v2h2l1 2v6l-2 2-4-11z" fill="#1B1411"/>
<path transform="translate(1056,365)" d="m0 0h2v8h-7z" fill="#4A524B"/>
<path transform="translate(1305,357)" d="m0 0h1l1 8v11h-1v-5h-2v-8z" fill="#809386"/>
<path transform="translate(423,338)" d="m0 0h2v8h-8l-2-6 2-1 1 4 5-1z" fill="#4D554E"/>
<path transform="translate(513,338)" d="m0 0h5v5l-5 1-1-5z" fill="#DCDADA"/>
<path transform="translate(465,336)" d="m0 0 2 2v6h-3l-2-3-3-1v-2z" fill="#D1CFCE"/>
<path transform="translate(864,820)" d="m0 0h6l1 4-1 1h-6z" fill="#F0F0F0"/>
<path transform="translate(772,820)" d="m0 0h6l1 4-1 1h-6z" fill="#F0F0F0"/>
<path transform="translate(409,576)" d="m0 0h7l-1 5-1-3h-4v2h3v2l-5-1z" fill="#999B95"/>
<path transform="translate(355,576)" d="m0 0 2 2 1-2 3 1 1 5h-9z" fill="#959791"/>
<path transform="translate(1051,543)" d="m0 0h7v3h-2l2 5-4-2-3-3z" fill="#79817A"/>
<path transform="translate(832,512)" d="m0 0 1 3-5 12-2 4v-7z" fill="#D5D6D7"/>
<path transform="translate(816,512)" d="m0 0 2 1-1 5-3 8-2 1 1-6z" fill="#A6968F"/>
<path transform="translate(450,494)" d="m0 0h6l-1 5-4 1-1-1z" fill="#E8E8E9"/>
<path transform="translate(411,494)" d="m0 0h5v5l-5 1-1-5z" fill="#E6E6E6"/>
<path transform="translate(929,479)" d="m0 0h4l2 4 2 2-3 1v-2l-4 1-2 3-1-5 2-2z" fill="#D2D5D8"/>
<path transform="translate(778,374)" d="m0 0h15l-4 2-6 2h-6l2-2z" fill="#A59289"/>
<path transform="translate(431,338)" d="m0 0 5 1-1 5-5-1z" fill="#DCDCDD"/>
<path transform="translate(1135,315)" d="m0 0 2 1-2 4-2 1 10 1v1h-12l-2-1 1-3z" fill="#CAC8C9"/>
<path transform="translate(808,544)" d="m0 0 1 3-2 7-4 3 1-10 3-1z" fill="#DFE0E2"/>
<path transform="translate(779,504)" d="m0 0 5 2 4 4-2 1-7-3z" fill="#D2D2D2"/>
<path transform="translate(1309,434)" d="m0 0h2l1 5v15l-2-3z" fill="#595F5D"/>
<path transform="translate(1218,431)" d="m0 0h3l1 2 6 1-1 3-7-1-2-2z" fill="#CECBCB"/>
<path transform="translate(800,365)" d="m0 0 1 3 3-1 1 3 2-1 1 5h-5v-3l-4-2z" fill="#15100E"/>
<path transform="translate(489,338)" d="m0 0 5 1-1 5-5-1z" fill="#DDDEDF"/>
<path transform="translate(419,338)" d="m0 0 5 1-1 4-5 1v-5z" fill="#DDDCDC"/>
<path transform="translate(406,338)" d="m0 0h4l1 5-5 1-1-5z" fill="#DFDEDE"/>
<path transform="translate(399,336)" d="m0 0h3v2l2 1-2 7-1-2h-2z" fill="#CFD1D0"/>
<path transform="translate(385,564)" d="m0 0 4 1-1 5-5-1 1-4z" fill="#B4ADA8"/>
<path transform="translate(471,493)" d="m0 0h2v4h2l3 3v3l-5-1-1-1z" fill="#7A7D76"/>
<path transform="translate(822,485)" d="m0 0h2l4 8-6 2z" fill="#A69086"/>
<path transform="translate(775,407)" d="m0 0h8l-2 4-4-1-4 1-1-2z" fill="#BBB1AD"/>
<path transform="translate(842,381)" d="m0 0h3v6l-4 2-1-5z" fill="#DFDFE0"/>
<path transform="translate(1303,371)" d="m0 0h3l1 8-1 3h-2z" fill="#5A6860"/>
<path transform="translate(666,788)" d="m0 0h6l-1 5h-5z" fill="#EBECEC"/>
<path transform="translate(1256,537)" d="m0 0h7v1h-5v3h4v2h-4l1 4h-2z" fill="#3F3E3C"/>
<path transform="translate(776,517)" d="m0 0 3 4 1 8-3-3-3-6h2z" fill="#E6E5E5"/>
<path transform="translate(843,499)" d="m0 0 3 2-1 4-1 2h-4l2-7z" fill="#D1D4D6"/>
<path transform="translate(509,497)" d="m0 0 1 4-2 2h-6l-1-3h6l1-2z" fill="#7A8077"/>
<path transform="translate(834,459)" d="m0 0 5 5 1 5h-3l-2 2v-8z" fill="#42413E"/>
<path transform="translate(476,338)" d="m0 0h5v5l-5 1z" fill="#E0DFDF"/>
<path transform="translate(376,338)" d="m0 0h3l1 4-2 2h-4v-5z" fill="#E1E1E1"/>
<path transform="translate(450,577)" d="m0 0h9l1 3-2 1-1-2-3 3h-3z" fill="#879389"/>
<path transform="translate(371,565)" d="m0 0h4v5l-4 1-2-1 1-4z" fill="#A6AAA6"/>
<path transform="translate(1220,563)" d="m0 0h2l1 2v11h-2z" fill="#363432"/>
<path transform="translate(1097,557)" d="m0 0h4v4h-9l-1-3h3v2z" fill="#BBBCBF"/>
<path transform="translate(845,501)" d="m0 0h2l-1 8-3 4-2-6h3z" fill="#B8B0AD"/>
<path transform="translate(401,494)" d="m0 0h1v6h3l-1 3-5-1v-5h2z" fill="#70756F"/>
<path transform="translate(1313,442)" d="m0 0h1l2 9-1 11h-1l-1-8z" fill="#B7B3B2"/>
<path transform="translate(825,382)" d="m0 0 6 1 1 4-2 3-4-4z" fill="#2F2C29"/>
<path transform="translate(781,354)" d="m0 0 1 2-2 4h2l-1 4-2-4h-3v-3z" fill="#695F56"/>
<path transform="translate(1125,571)" d="m0 0h1l1 8 1 1v6l-3-1z" fill="#3F3E3C"/>
<path transform="translate(1166,544)" d="m0 0 2 3 4 1 3 5-4-2-3-2v4h-2z" fill="#3F3F3C"/>
<path transform="translate(1168,543)" d="m0 0 6 2-1 3h-5l-1-4z" fill="#735E52"/>
<path transform="translate(736,497)" d="m0 0h6l-1 7-3 3v-7l-2-1z" fill="#D2D5D8"/>
<path transform="translate(750,483)" d="m0 0 2 3 1 8-2 4-1-1-1-11z" fill="#D2D5D8"/>
<path transform="translate(813,460)" d="m0 0 3 1-1 3-3 2-3 3-1-4 3-3h2z" fill="#34322F"/>
<path transform="translate(815,409)" d="m0 0 7 2 1 2h-10l-1-3z" fill="#2A2724"/>
<path transform="translate(941,369)" d="m0 0 4 5-4 4-2-1v-3h2l-1-4z" fill="#D2D5D8"/>
<path transform="translate(822,357)" d="m0 0 8 4 3 4-6-2-5-4z" fill="#575752"/>
<path transform="translate(863,515)" d="m0 0 1 2-2 8h-2l-1-6z" fill="#E5E6E7"/>
<path transform="translate(860,500)" d="m0 0h1v6l2 1-6 3-2-1v-2l4-2z" fill="#BCB6B4"/>
<path transform="translate(805,467)" d="m0 0h3l1 5-8 1 2-1v-2h2z" fill="#363431"/>
<path transform="translate(831,447)" d="m0 0h1v6l-5 7-1-4 1-2h2z" fill="#1B1411"/>
<path transform="translate(816,438)" d="m0 0h3l-1 3h-3v2l-6 1 2-3z" fill="#0E0A09"/>
<path transform="translate(1224,368)" d="m0 0 4 1 1 2v6l-3-2-2-4-2-2z" fill="#D4D2D2"/>
<path transform="translate(816,349)" d="m0 0 5 1 3 3v5l-5-3 1-3z" fill="#B7B1AF"/>
</svg>
